<?xml version="1.0" standalone="no"?><!-- Generator: Gravit.io --><svg xmlns="http://www.w3.org/2000/svg" xmlns:xlink="http://www.w3.org/1999/xlink" style="isolation:isolate" viewBox="0 0 500 500" width="500" height="500"><defs><clipPath id="_clipPath_cy9mlpeAiwE0EtYYqg8p1r1eEA10yi4Q"><rect width="500" height="500"/></clipPath></defs><g clip-path="url(#_clipPath_cy9mlpeAiwE0EtYYqg8p1r1eEA10yi4Q)"><defs><filter id="5QlvbWM2HrQl5mRPDSKhBKi5QrFzdem5" x="-200%" y="-200%" width="400%" height="400%" filterUnits="objectBoundingBox" color-interpolation-filters="sRGB"><feGaussianBlur xmlns="http://www.w3.org/2000/svg" in="SourceGraphic" stdDeviation="1.2880827188517086"/><feOffset xmlns="http://www.w3.org/2000/svg" dx="0" dy="0" result="pf_100_offsetBlur"/><feFlood xmlns="http://www.w3.org/2000/svg" flood-color="#000000" flood-opacity="0.65"/><feComposite xmlns="http://www.w3.org/2000/svg" in2="pf_100_offsetBlur" operator="in" result="pf_100_dropShadow"/><feBlend xmlns="http://www.w3.org/2000/svg" in="SourceGraphic" in2="pf_100_dropShadow" mode="normal"/></filter></defs><g filter="url(#5QlvbWM2HrQl5mRPDSKhBKi5QrFzdem5)"><circle vector-effect="non-scaling-stroke" cx="250" cy="250" r="225" fill="rgb(241,98,114)"/></g><g><g><path d=" M 193.774 125.128 C 193.774 68.59 218.947 125.128 250 125.128 C 281.053 125.128 306.226 68.59 306.226 125.128 C 306.226 181.667 281.053 227.5 250 227.5 C 218.947 227.5 193.774 181.667 193.774 125.128 L 193.774 125.128 Z " fill-rule="evenodd" fill="rgb(255,255,255)"/><path d=" M 193.774 374.872 C 193.774 431.41 218.947 374.872 250 374.872 C 281.053 374.872 306.226 431.41 306.226 374.872 C 306.226 318.333 281.053 272.5 250 272.5 C 218.947 272.5 193.774 318.333 193.774 374.872 L 193.774 374.872 Z " fill-rule="evenodd" fill="rgb(255,255,255)"/><path d=" M 374.834 193.774 C 431.373 193.774 374.834 218.947 374.834 250 C 374.834 281.053 431.373 306.226 374.834 306.226 C 318.296 306.226 272.463 281.053 272.463 250 C 272.463 218.947 318.296 193.774 374.834 193.774 L 374.834 193.774 Z " fill-rule="evenodd" fill="rgb(255,255,255)"/><path d=" M 125.166 306.226 C 68.627 306.226 125.166 281.053 125.166 250 C 125.166 218.947 68.627 193.774 125.166 193.774 C 181.704 193.774 227.537 218.947 227.537 250 C 227.537 281.053 181.704 306.226 125.166 306.226 L 125.166 306.226 Z " fill-rule="evenodd" fill="rgb(255,255,255)"/><ellipse vector-effect="non-scaling-stroke" cx="249.99999992500005" cy="193.75000008900957" rx="14.993502441849316" ry="15.000000111897776" fill="rgb(241,98,114)"/><ellipse vector-effect="non-scaling-stroke" cx="306.22563404443497" cy="250.00000050862621" rx="14.99350244184933" ry="15.00000011189779" fill="rgb(241,98,114)"/><ellipse vector-effect="non-scaling-stroke" cx="193.7743658055651" cy="250.00000050862621" rx="14.99350244184933" ry="15.00000011189779" fill="rgb(241,98,114)"/><ellipse vector-effect="non-scaling-stroke" cx="249.99999992500005" cy="306.2500009282429" rx="14.993502441849316" ry="15.000000111897805" fill="rgb(241,98,114)"/></g></g></g></svg>