<?xml version="1.0" encoding="UTF-8" standalone="no"?>
<svg
   xmlns:sketch="http://www.bohemiancoding.com/sketch/ns"
   xmlns:dc="http://purl.org/dc/elements/1.1/"
   xmlns:cc="http://creativecommons.org/ns#"
   xmlns:rdf="http://www.w3.org/1999/02/22-rdf-syntax-ns#"
   xmlns:svg="http://www.w3.org/2000/svg"
   xmlns="http://www.w3.org/2000/svg"
   xmlns:sodipodi="http://sodipodi.sourceforge.net/DTD/sodipodi-0.dtd"
   xmlns:inkscape="http://www.inkscape.org/namespaces/inkscape"
   width="500px"
   height="500px"
   viewBox="0 0 500 500"
   version="1.1"
   id="svg2"
   inkscape:version="0.92.3 (2405546, 2018-03-11)"
   sodipodi:docname="embed.svg">
  <metadata
     id="metadata22">
    <rdf:RDF>
      <cc:Work
         rdf:about="">
        <dc:format>image/svg+xml</dc:format>
        <dc:type
           rdf:resource="http://purl.org/dc/dcmitype/StillImage" />
      </cc:Work>
    </rdf:RDF>
  </metadata>
  <sodipodi:namedview
     pagecolor="#ffffff"
     bordercolor="#666666"
     borderopacity="1"
     objecttolerance="10"
     gridtolerance="10"
     guidetolerance="10"
     inkscape:pageopacity="0"
     inkscape:pageshadow="2"
     inkscape:window-width="1920"
     inkscape:window-height="1017"
     id="namedview20"
     showgrid="false"
     inkscape:zoom="0.6675088"
     inkscape:cx="123.17806"
     inkscape:cy="244.68291"
     inkscape:window-x="0"
     inkscape:window-y="30"
     inkscape:window-maximized="1"
     inkscape:current-layer="Group" />
  <!-- Generator: Sketch 3.3.2 (12043) - http://www.bohemiancoding.com/sketch -->
  <title
     id="title4">Group</title>
  <desc
     id="desc6">Created with Sketch.</desc>
  <defs
     id="defs8" />
  <g
     style="fill:none;fill-rule:evenodd;stroke:none;stroke-width:1"
     id="Group"
     sketch:type="MSLayerGroup">
    <path
       d="M 250,500 C 388.07119,500 500,388.07119 500,250 500,111.92881 388.07119,0 250,0 111.92881,0 0,111.92881 0,250 0,388.07119 111.92881,500 250,500 Z"
       id="Oval-20"
       sketch:type="MSShapeGroup"
       inkscape:connector-curvature="0"
       style="fill:#ff872e" />
    <ellipse
       id="Oval-42"
       sketch:type="MSShapeGroup"
       cx="250"
       cy="188"
       style="fill:#ffffff"
       r="100" />
    <path
       style="fill:#ffffff;fill-rule:evenodd;stroke:none;stroke-width:1.4515003"
       d="M 250,117.26996 A 145.15,145.15 0 0 0 104.85,262.42 145.15,145.15 0 0 0 168.87768,382.73004 l 56.74456,-89.4686 A 36.2875,36.2875 0 0 1 213.7125,266.43991 36.2875,36.2875 0 0 1 250,230.15241 a 36.2875,36.2875 0 0 1 36.2875,36.2875 36.2875,36.2875 0 0 1 -11.90677,26.82436 l 56.69944,89.39493 A 145.15,145.15 0 0 0 395.15,262.42 145.15,145.15 0 0 0 250,117.26996 Z"
       id="Oval-43-8"
       inkscape:connector-curvature="0" />
  </g>
</svg>
