<?xml version="1.0" standalone="no"?><!-- Generator: Gravit.io --><svg xmlns="http://www.w3.org/2000/svg" xmlns:xlink="http://www.w3.org/1999/xlink" style="isolation:isolate" viewBox="0 0 500 500" width="500" height="500"><defs><clipPath id="_clipPath_0x9KsCbBzLTIgIZLYmwfxxa2ytJaU4NH"><rect width="500" height="500"/></clipPath></defs><g clip-path="url(#_clipPath_0x9KsCbBzLTIgIZLYmwfxxa2ytJaU4NH)"><circle vector-effect="non-scaling-stroke" cx="250" cy="249.99999999999991" r="249.99999999999892" fill="rgb(227,98,98)"/><g><rect x="85.901" y="131.531" width="326.959" height="198.519" transform="matrix(1,0,0,1,0,0)" fill="rgb(255,255,255)"/><path d=" M 414.099 113.391 L 85.901 113.391 C 76.662 113.391 69.113 120.94 69.113 130.179 L 69.113 330.05 C 69.113 339.288 76.662 346.837 85.901 346.837 L 414.099 346.837 C 423.338 346.837 430.887 339.288 430.887 330.05 L 430.887 130.179 C 430.887 120.94 423.338 113.391 414.099 113.391 Z  M 412.86 312.023 C 412.86 321.262 405.311 328.81 396.073 328.81 L 104.04 328.81 C 94.801 328.81 87.253 321.262 87.253 312.023 L 87.253 148.318 C 87.253 139.08 94.801 131.531 104.04 131.531 L 396.073 131.531 C 405.311 131.531 412.86 139.08 412.86 148.318 L 412.86 312.023 L 412.86 312.023 Z  M 315.178 371.286 L 292.306 371.286 L 292.306 346.95 L 207.581 346.95 L 207.581 371.286 L 184.71 371.286 C 180.478 371.286 177.048 374.716 177.048 378.947 C 177.048 383.178 180.478 386.609 184.71 386.609 L 315.178 386.609 C 319.409 386.609 322.839 383.178 322.839 378.947 C 322.839 374.716 319.409 371.286 315.178 371.286 Z " fill="rgb(51,51,51)"/></g><circle vector-effect="non-scaling-stroke" cx="144" cy="374" r="8" fill="rgb(111,111,111)"/><g><g filter="url(#8mnqTv7knhLutHrUDTIr1tgddgvT2HBi)"><path d=" M 163.712 276.014 L 123.603 276.014 C 116.68 276.014 111.068 281.625 111.068 288.548 L 111.068 373.78 C 111.068 380.703 116.68 386.315 123.603 386.315 L 163.712 386.315 C 170.634 386.315 176.246 380.703 176.246 373.78 L 176.246 288.548 C 176.246 281.625 170.634 276.014 163.712 276.014 Z  M 143.657 381.301 C 139.496 381.301 136.137 377.942 136.137 373.78 C 136.137 369.619 139.496 366.26 143.657 366.26 C 147.819 366.26 151.178 369.619 151.178 373.78 C 151.178 377.942 147.819 381.301 143.657 381.301 Z  M 166.219 361.246 L 121.096 361.246 L 121.096 291.055 L 166.219 291.055 L 166.219 361.246 Z " fill="rgb(85,85,85)"/><path d=" M 86 271 L 206.328 271 L 206.328 391.328 L 86 391.328 L 86 271 Z " fill="none"/></g><defs><filter id="8mnqTv7knhLutHrUDTIr1tgddgvT2HBi" x="-200%" y="-200%" width="400%" height="400%" filterUnits="objectBoundingBox" color-interpolation-filters="sRGB"><feGaussianBlur xmlns="http://www.w3.org/2000/svg" in="SourceGraphic" stdDeviation="2.146804531419514"/><feOffset xmlns="http://www.w3.org/2000/svg" dx="0" dy="0" result="pf_100_offsetBlur"/><feFlood xmlns="http://www.w3.org/2000/svg" flood-color="#000000" flood-opacity="0.65"/><feComposite xmlns="http://www.w3.org/2000/svg" in2="pf_100_offsetBlur" operator="in" result="pf_100_dropShadow"/><feBlend xmlns="http://www.w3.org/2000/svg" in="SourceGraphic" in2="pf_100_dropShadow" mode="normal"/></filter></defs><rect x="121.099" y="290" width="46" height="71" transform="matrix(1,0,0,1,0,0)" fill="rgb(255,255,255)"/></g><circle vector-effect="non-scaling-stroke" cx="364" cy="366" r="15" fill="rgb(111,111,111)"/><g><g filter="url(#MQtqIlfmmYlCFTXjoKYIjGN6AJxwMsJF)"><path d=" M 396.238 210.972 L 332.462 210.972 C 321.455 210.972 312.532 219.895 312.532 230.902 L 312.532 366.426 C 312.532 377.433 321.455 386.356 332.462 386.356 L 396.238 386.356 C 407.245 386.356 416.168 377.433 416.168 366.426 L 416.168 230.902 C 416.168 219.895 407.245 210.972 396.238 210.972 Z  M 364.35 378.384 C 357.733 378.384 352.392 373.043 352.392 366.426 C 352.392 359.809 357.733 354.468 364.35 354.468 C 370.967 354.468 376.308 359.809 376.308 366.426 C 376.308 373.043 370.967 378.384 364.35 378.384 Z  M 400.224 346.496 L 328.476 346.496 L 328.476 234.888 L 400.224 234.888 L 400.224 346.496 Z " fill="rgb(66,66,66)"/><path d=" M 272.672 203 L 464 203 L 464 394.328 L 272.672 394.328 L 272.672 203 Z " fill="none"/></g><defs><filter id="MQtqIlfmmYlCFTXjoKYIjGN6AJxwMsJF" x="-200%" y="-200%" width="400%" height="400%" filterUnits="objectBoundingBox" color-interpolation-filters="sRGB"><feGaussianBlur xmlns="http://www.w3.org/2000/svg" in="SourceGraphic" stdDeviation="2.146804531419514"/><feOffset xmlns="http://www.w3.org/2000/svg" dx="0" dy="0" result="pf_100_offsetBlur"/><feFlood xmlns="http://www.w3.org/2000/svg" flood-color="#000000" flood-opacity="0.65"/><feComposite xmlns="http://www.w3.org/2000/svg" in2="pf_100_offsetBlur" operator="in" result="pf_100_dropShadow"/><feBlend xmlns="http://www.w3.org/2000/svg" in="SourceGraphic" in2="pf_100_dropShadow" mode="normal"/></filter></defs><rect x="328.481" y="233.211" width="73.142" height="112.894" transform="matrix(1,0,0,1,0,0)" fill="rgb(255,255,255)"/></g></g></svg>