<?xml version="1.0" encoding="UTF-8" standalone="no"?>
<svg width="7680px" height="4320px" viewBox="0 0 7680 4320" version="1.1" xmlns="http://www.w3.org/2000/svg" xmlns:xlink="http://www.w3.org/1999/xlink" xmlns:sketch="http://www.bohemiancoding.com/sketch/ns">
    <!-- Generator: Sketch 3.3.2 (12043) - http://www.bohemiancoding.com/sketch -->
    <title>Rectangle 1 + Logo + Monogatari + All stories should b</title>
    <desc>Created with Sketch.</desc>
    <defs></defs>
    <g id="Page-2" stroke="none" stroke-width="1" fill="none" fill-rule="evenodd" sketch:type="MSPage">
        <g id="Rectangle-1-+-Logo-+-Monogatari-+-All-stories-should-b" sketch:type="MSLayerGroup">
            <rect id="Rectangle-1" fill="#F7F6F6" sketch:type="MSShapeGroup" x="0" y="0" width="7680" height="4320"></rect>
            <g id="Logo" transform="translate(287.000000, 660.000000)" sketch:type="MSShapeGroup">
                <path d="M937.706229,251.281764 C937.706229,-314.102205 1189.52088,251.281764 1500.14999,251.281764 C1810.77909,251.281764 2062.59374,-314.102205 2062.59374,251.281764 C2062.59374,816.665734 1810.77909,1275 1500.14999,1275 C1189.52088,1275 937.706229,816.665734 937.706229,251.281764 L937.706229,251.281764 Z" id="Oval-2-Copy-3" fill="#F16272"></path>
                <path d="M937.706229,1976.28176 C937.706229,1410.89779 1189.52088,1976.28176 1500.14999,1976.28176 C1810.77909,1976.28176 2062.59374,1410.89779 2062.59374,1976.28176 C2062.59374,2541.66573 1810.77909,3000 1500.14999,3000 C1189.52088,3000 937.706229,2541.66573 937.706229,1976.28176 L937.706229,1976.28176 Z" id="Oval-2-Copy-4" fill="#F16272" transform="translate(1500.149985, 2362.500000) scale(1, -1) translate(-1500.149985, -2362.500000) "></path>
                <path d="M1800.11999,1113.78176 C1800.11999,548.397795 2051.93463,1113.78176 2362.56374,1113.78176 C2673.19285,1113.78176 2925.0075,548.397795 2925.0075,1113.78176 C2925.0075,1679.16573 2673.19285,2137.5 2362.56374,2137.5 C2051.93463,2137.5 1800.11999,1679.16573 1800.11999,1113.78176 L1800.11999,1113.78176 Z" id="Oval-2-Copy-6" fill="#F16272" transform="translate(2362.563744, 1500.000000) scale(-1, -1) rotate(270.000000) translate(-2362.563744, -1500.000000) "></path>
                <path d="M75.2924708,1113.78176 C75.2924708,548.397795 327.107118,1113.78176 637.736226,1113.78176 C948.365335,1113.78176 1200.17998,548.397795 1200.17998,1113.78176 C1200.17998,1679.16573 948.365335,2137.5 637.736226,2137.5 C327.107118,2137.5 75.2924708,1679.16573 75.2924708,1113.78176 L75.2924708,1113.78176 Z" id="Oval-2-Copy-5" fill="#F16272" transform="translate(637.736226, 1500.000000) rotate(270.000000) translate(-637.736226, -1500.000000) "></path>
                <ellipse id="Oval-13-Copy" fill="#FFFFFF" cx="1500.14999" cy="937.5" rx="149.985001" ry="150"></ellipse>
                <ellipse id="Oval-13-Copy-3" fill="#FFFFFF" cx="2062.59374" cy="1500" rx="149.985001" ry="150"></ellipse>
                <ellipse id="Oval-13-Copy-4" fill="#FFFFFF" cx="937.706229" cy="1500" rx="149.985001" ry="150"></ellipse>
                <ellipse id="Oval-13-Copy-2" fill="#FFFFFF" cx="1500.14999" cy="2062.5" rx="149.985001" ry="150"></ellipse>
            </g>
            <g id="Monogatari-+-All-stories-should-b" transform="translate(3723.000000, 1643.000000)" font-family="Ubuntu" fill="#696969" sketch:type="MSTextLayer" font-weight="normal">
                <text id="Monogatari" font-size="700">
                    <tspan x="0" y="652">Monogatari</tspan>
                </text>
                <text id="Every-story-should-b" font-size="200">
                    <tspan x="673" y="990">Every story should be told</tspan>
                </text>
            </g>
        </g>
    </g>
</svg>