<?xml version="1.0" standalone="no"?><!-- Generator: Gravit.io --><svg xmlns="http://www.w3.org/2000/svg" xmlns:xlink="http://www.w3.org/1999/xlink" style="isolation:isolate" viewBox="0 0 500 500" width="500" height="500"><g><circle vector-effect="non-scaling-stroke" cx="0" cy="0" r="1" transform="matrix(250,0,0,250,250,250)" fill="rgb(251,192,45)"/><path d="M 85 125 L 415 125 C 420.519 125 425 129.481 425 135 L 425 365 C 425 370.519 420.519 375 415 375 L 85 375 C 79.481 375 75 370.519 75 365 L 75 135 C 75 129.481 79.481 125 85 125 Z" style="fill:none;stroke:#FFFFFF;stroke-width:15;"/><path d=" M 239.5 165 C 216.028 165 197 184.028 197 207.5 C 197 230.972 216.028 250 239.5 250 C 259.087 249.976 276.121 236.568 280.746 217.535 C 275.286 222.334 268.269 224.986 261 225 C 244.431 225 231 211.569 231 195 C 231.016 182.22 239.127 170.853 251.207 166.682 C 247.402 165.578 243.462 165.012 239.5 165 L 239.5 165 Z " fill-rule="evenodd" fill="rgb(255,255,255)"/><path d=" M 75 347.566 C 75 342.038 76.07 333.202 78.068 328.133 C 78.068 328.133 76.984 328.511 78.075 328.131 C 78.51 327.979 78.373 327.659 80.238 327.203 C 95.856 323.381 144.57 269.169 171.29 276 C 197.542 282.711 223.368 339.681 250.22 333.473 C 305.602 320.668 327.325 224.923 367.513 224.923 C 387.19 224.923 418.779 280.952 418.779 280.952 L 418.779 280.952 C 420.229 283.127 421.604 289.358 421.851 294.877 L 424.993 365.013 C 425.24 370.528 420.961 375 415.447 375 L 84.993 375 C 79.474 375 75 370.521 75 364.99 L 75 347.566 L 75 347.566 Z " fill-rule="evenodd" fill="rgb(255,255,255)"/></g></svg>