<?xml version="1.0" encoding="UTF-8" standalone="no"?>
<svg width="391px" height="441px" viewBox="0 0 391 441" version="1.1" xmlns="http://www.w3.org/2000/svg" xmlns:xlink="http://www.w3.org/1999/xlink" xmlns:sketch="http://www.bohemiancoding.com/sketch/ns">
    <!-- Generator: Sketch 3.3.2 (12043) - http://www.bohemiancoding.com/sketch -->
    <title>midori</title>
    <desc>Created with Sketch.</desc>
    <defs>
        <linearGradient x1="74.7824851%" y1="65.6643308%" x2="5.57116601%" y2="-63.0151898%" id="linearGradient-1">
            <stop stop-color="#41A100" offset="0%"></stop>
            <stop stop-color="#FFFFFF" stop-opacity="0" offset="100%"></stop>
        </linearGradient>
        <linearGradient x1="33.7336166%" y1="-27.1514234%" x2="162.593258%" y2="71.0097028%" id="linearGradient-2">
            <stop stop-color="#FFFFFF" stop-opacity="0.59836066" offset="0%"></stop>
            <stop stop-color="#4E9A06" stop-opacity="0" offset="100%"></stop>
        </linearGradient>
    </defs>
    <g id="Page-1" stroke="none" stroke-width="1" fill="none" fill-rule="evenodd" sketch:type="MSPage">
        <g id="midori" sketch:type="MSLayerGroup" transform="translate(-46.000000, -86.000000)">
            <g id="layer1" transform="translate(0.231460, 0.609670)" sketch:type="MSShapeGroup">
                <g id="g3562" transform="translate(251.360036, 289.572407) rotate(15.778853) translate(-251.360036, -289.572407) translate(67.758887, 46.745082)" fill="#C5F199">
                    <path d="M279.866429,7.93078664 C236.230749,51.4930624 25.0164383,78.942204 0,319.821355 C4.0441979,380.417434 32.5763281,457.454616 88.8368608,445.352931 C100.478109,442.848884 112.98579,447.684109 120.864103,454.945653 C172.411464,502.457567 221.889036,483.075149 235.187433,449.674121 C237.736966,443.270574 245.847825,442.604493 252.492043,445.257151 C329.972793,476.19077 350.774827,386.698204 355.357062,319.821355 C356.505445,290.816958 341.152883,70.3916972 317.714716,52.9845197 C310.72996,47.7970528 293.781406,73.2916951 280.075201,99.2548638 C170.541374,306.740816 32.7213138,213.890387 275.265491,13.6789939 L278.049133,7.43465133 L281.258208,7.80167595" id="path3564"></path>
                    <g id="g3566" transform="translate(71.071412, 319.821355)">
                        <path d="M106.607118,142.142825 L106.607118,0" id="path3568"></path>
                        <path d="M0,106.607118 L0,23.6904708" id="path3570"></path>
                        <path d="M213.214237,106.607118 L213.214237,23.6904708" id="path3572"></path>
                    </g>
                </g>
                <g id="g3574" transform="translate(237.608050, 316.459120) rotate(15.778853) translate(-237.608050, -316.459120) translate(71.774755, 115.090118)" fill="#73D216">
                    <path d="M298.909647,20.4238391 C254.631553,116.151926 142.141581,212.586049 112.467501,149.642884 C97.8323339,118.599507 123.718592,63.2473382 177.329227,0.54626672 C107.234726,43.6486145 -11.7876616,149.936622 7.27398137,259.306002 C2.84399364,304.786186 38.1130399,389.170672 83.8015342,361.611559 C95.9809236,354.265002 116.466334,364.881176 123.817487,377.385563 C139.435987,403.952815 196.219937,396.190419 208.559675,379.178553 C217.65485,366.639755 236.674993,359.378531 251.657747,362.868386 C317.201639,378.135189 321.789441,290.31241 321.512962,255.717038 C340.806647,128.422003 300.344022,67.5706951 298.909647,20.4238391 L298.909647,20.4238391 Z" id="path3576"></path>
                    <g id="g3578" transform="translate(59.226177, 248.749943)">
                        <path d="M213.214237,106.607118 L213.214237,23.6904708" id="path3580"></path>
                        <path d="M106.607118,142.142825 L106.607118,0" id="path3582"></path>
                        <path d="M0,106.607118 L0,23.6904708" id="path3584"></path>
                    </g>
                </g>
                <path d="M73.6346078,309.938431 C100.197843,258.004216 149.376176,257.404804 235.514412,285.61549 C292.714902,285.615392 369.589314,231.480784 413.062255,182.956176 C422.812157,371.24951 338.948824,560.885 264.271176,487.039216 C254.285882,477.165294 246.768431,487.976471 232.025196,496.223333 C217.905392,504.121569 211.12,505.344216 195.887353,501.401176 C145.673824,504.580882 135.933137,423.665784 113.646569,439.986078 C71.380098,470.937451 56.1804902,383.279706 73.6346078,309.938431 L73.6346078,309.938431 Z" id="path3586" fill="url(#linearGradient-1)"></path>
                <path d="M122.924902,453.715294 C119.684314,425.563529 116.117647,372.553235 140.768824,341.780392" id="path3590" stroke="#C5F199" stroke-width="3.6246419"></path>
                <path d="M247.725686,372.933529 C219.311078,447.12451 237.78451,459.660784 251.600294,499.996667 L251.600294,499.996667 L249.849608,493.869216" id="path3592" stroke="#C5F199" stroke-width="3.6246419"></path>
                <g id="g3596" transform="translate(249.749493, 293.521121) rotate(15.778853) translate(-249.749493, -293.521121) translate(66.148345, 44.771178)" stroke="#204C00" stroke-width="1.00000001">
                    <path d="M294.19651,2.27048287 C244.029854,27.0499927 4.4049706,124.843628 1.32614517,324.312595 C2.83539399,391.092088 35.8078741,473.205403 106.557096,449.83967 C111.571445,448.18643 112.566966,449.710568 115.580157,453.472734 C164.788155,514.912062 233.782837,481.70706 242.378119,449.748438 C243.6023,445.196752 238.173368,448.331795 242.378119,449.748438 C330.586068,479.467032 351.079854,398.048735 356.723931,329.052264 C369.857928,266.861995 323.528535,36.4744174 312.43135,55.3574401 C123.365781,377.072351 62.0291268,158.11096 294.19651,2.27048287" id="path3598"></path>
                    <g id="g3600" transform="translate(82.916648, 319.821355)">
                        <g id="g3602">
                            <path d="M31.337352,129.160139 C-11.2341752,49.6001938 6.40283538,28.5038888 8.45719009,3.31922448" id="path3606"></path>
                            <path d="M158.135314,128.271912 C119.487319,83.9239073 111.566446,40.5501023 119.855102,4.21430969" id="path3608"></path>
                        </g>
                    </g>
                </g>
                <path d="M293.36451,133.252941 C295.177255,110.665882 71.7123529,205.068333 74.5582353,311.377059 C113.46098,260.824706 151.258137,256.657255 213.28402,281.974118 C258.507353,324.21451 123.263627,247.191373 293.36451,133.252941 L293.36451,133.252941 L293.36451,133.252941 Z" id="path3610" fill="url(#linearGradient-2)"></path>
            </g>
        </g>
    </g>
</svg>