<?xml version="1.0" encoding="UTF-8" standalone="no"?>
<svg width="462px" height="462px" viewBox="0 0 462 462" version="1.1" xmlns="http://www.w3.org/2000/svg" xmlns:xlink="http://www.w3.org/1999/xlink" xmlns:sketch="http://www.bohemiancoding.com/sketch/ns">
    <!-- Generator: Sketch 3.3.2 (12043) - http://www.bohemiancoding.com/sketch -->
    <title>Safari Icon</title>
    <desc>Created with Sketch.</desc>
    <defs>
        <linearGradient x1="50%" y1="0%" x2="50%" y2="95.8930188%" id="linearGradient-1">
            <stop stop-color="#FFFFFF" offset="0%"></stop>
            <stop stop-color="#CCCCCC" offset="100%"></stop>
        </linearGradient>
        <filter x="-50%" y="-50%" width="200%" height="200%" filterUnits="objectBoundingBox" id="filter-2">
            <feMorphology radius="1" in="SourceAlpha" operator="dilate" result="shadowSpreadOuter1"></feMorphology>
            <feOffset dx="-1" dy="2" in="shadowSpreadOuter1" result="shadowOffsetOuter1"></feOffset>
            <feGaussianBlur stdDeviation="2.5" in="shadowOffsetOuter1" result="shadowBlurOuter1"></feGaussianBlur>
            <feColorMatrix values="0 0 0 0 0   0 0 0 0 0   0 0 0 0 0  0 0 0 0.35 0" in="shadowBlurOuter1" type="matrix" result="shadowMatrixOuter1"></feColorMatrix>
            <feMerge>
                <feMergeNode in="shadowMatrixOuter1"></feMergeNode>
                <feMergeNode in="SourceGraphic"></feMergeNode>
            </feMerge>
        </filter>
        <radialGradient cx="50%" cy="52.8590598%" fx="50%" fy="52.8590598%" r="45.880671%" id="radialGradient-3">
            <stop stop-color="#1CA9C8" offset="0%"></stop>
            <stop stop-color="#1266BC" offset="100%"></stop>
        </radialGradient>
        <radialGradient cx="50%" cy="50%" fx="50%" fy="50%" r="52.6693355%" id="radialGradient-4">
            <stop stop-color="#019CB8" offset="0%"></stop>
            <stop stop-color="#00A8CB" offset="22.1916951%"></stop>
            <stop stop-color="#009AC7" offset="44.6645593%"></stop>
            <stop stop-color="#0A69DB" offset="100%"></stop>
        </radialGradient>
        <ellipse id="path-5" cx="225" cy="224.5" rx="208" ry="207.5"></ellipse>
        <linearGradient x1="50%" y1="-13.9171931%" x2="50%" y2="95.8930188%" id="linearGradient-6">
            <stop stop-color="#FFFFFF" offset="0%"></stop>
            <stop stop-color="#CCCCCC" offset="100%"></stop>
        </linearGradient>
        <linearGradient x1="55.5446802%" y1="-10.3539311%" x2="50%" y2="95.8930188%" id="linearGradient-7">
            <stop stop-color="#FFFFFF" offset="0%"></stop>
            <stop stop-color="#CCCCCC" offset="100%"></stop>
        </linearGradient>
        <filter x="-50%" y="-50%" width="200%" height="200%" filterUnits="objectBoundingBox" id="filter-8">
            <feMorphology radius="2" in="SourceAlpha" operator="dilate" result="shadowSpreadOuter1"></feMorphology>
            <feOffset dx="-3" dy="-1" in="shadowSpreadOuter1" result="shadowOffsetOuter1"></feOffset>
            <feGaussianBlur stdDeviation="2" in="shadowOffsetOuter1" result="shadowBlurOuter1"></feGaussianBlur>
            <feColorMatrix values="0 0 0 0 0   0 0 0 0 0   0 0 0 0 0  0 0 0 0.35 0" in="shadowBlurOuter1" type="matrix" result="shadowMatrixOuter1"></feColorMatrix>
            <feMerge>
                <feMergeNode in="shadowMatrixOuter1"></feMergeNode>
                <feMergeNode in="SourceGraphic"></feMergeNode>
            </feMerge>
        </filter>
        <filter x="-50%" y="-50%" width="200%" height="200%" filterUnits="objectBoundingBox" id="filter-9">
            <feMorphology radius="2" in="SourceAlpha" operator="dilate" result="shadowSpreadOuter1"></feMorphology>
            <feOffset dx="-1" dy="-4" in="shadowSpreadOuter1" result="shadowOffsetOuter1"></feOffset>
            <feGaussianBlur stdDeviation="3" in="shadowOffsetOuter1" result="shadowBlurOuter1"></feGaussianBlur>
            <feColorMatrix values="0 0 0 0 0   0 0 0 0 0   0 0 0 0 0  0 0 0 0.35 0" in="shadowBlurOuter1" type="matrix" result="shadowMatrixOuter1"></feColorMatrix>
            <feMerge>
                <feMergeNode in="shadowMatrixOuter1"></feMergeNode>
                <feMergeNode in="SourceGraphic"></feMergeNode>
            </feMerge>
        </filter>
    </defs>
    <g id="Page-1" stroke="none" stroke-width="1" fill="none" fill-rule="evenodd" sketch:type="MSPage">
        <g id="Safari-Icon" sketch:type="MSLayerGroup" transform="translate(7.000000, 4.000000)">
            <path d="M450,225 C450,100.735931 349.264069,0 225,0 C100.735931,0 0,100.735931 0,225 C0,349.264069 100.735931,450 225,450 C349.264069,450 450,349.264069 450,225 Z M19,225 C19,111.229342 111.229342,19 225,19 C338.770658,19 431,111.229342 431,225 C431,338.770658 338.770658,431 225,431 C111.229342,431 19,338.770658 19,225 Z" id="Oval-1" fill="url(#linearGradient-1)" filter="url(#filter-2)" sketch:type="MSShapeGroup"></path>
            <g id="Oval-1">
                <use stroke="#979797" stroke-width="1" fill="url(#radialGradient-3)" fill-rule="evenodd" sketch:type="MSShapeGroup" xlink:href="#path-5"></use>
                <use stroke="none" fill="none" xlink:href="#path-5"></use>
                <use stroke="none" fill="" fill-rule="evenodd" xlink:href="#path-5"></use>
                <use stroke="none" fill="url(#radialGradient-4)" fill-rule="evenodd" xlink:href="#path-5"></use>
            </g>
            <path d="M225,26 C223.343146,26 222,27.3498463 222,29.0036812 L222,64.9963188 C222,66.6552061 223.346517,68 225,68 C226.656854,68 228,66.6501537 228,64.9963188 L228,29.0036812 C228,27.3447939 226.653483,26 225,26 Z M264.355511,30.3522679 C262.734863,30.0077885 261.14042,31.0488817 260.796568,32.6665764 L253.313278,67.8726884 C252.968376,69.4953251 254.00587,71.0906887 255.62322,71.4344671 C257.243868,71.7789465 258.838312,70.7378533 259.182163,69.1201586 L266.665454,33.9140465 C267.010356,32.2914099 265.972861,30.6960463 264.355511,30.3522679 Z M301.300501,40.8277895 C299.764292,40.207121 298.013288,40.9555254 297.39375,42.4889345 L283.910671,75.8607269 C283.289241,77.3988205 284.033941,79.1501058 285.567024,79.7695114 C287.103232,80.3901799 288.854237,79.6417755 289.473774,78.1083665 L302.956854,44.7365741 C303.578284,43.1984805 302.833583,41.4471951 301.300501,40.8277895 Z M335.466746,59.617002 C334.093151,58.6905009 332.224808,59.0584966 331.299996,60.4295879 L311.173168,90.2688368 C310.24553,91.6441167 310.609844,93.5119642 311.980644,94.4365801 C313.354238,95.3630812 315.222581,94.9950855 316.147394,93.6239942 L336.274221,63.7847453 C337.201859,62.4094654 336.837545,60.5416179 335.466746,59.617002 Z M365.762008,84.6279064 C364.632036,83.4161599 362.728798,83.3544382 361.519259,84.4823509 L335.195911,109.029271 C333.982677,110.160629 333.91748,112.062557 335.045152,113.271837 C336.175124,114.483584 338.078363,114.545306 339.287901,113.417393 L365.61125,88.8704731 C366.824483,87.7391147 366.889681,85.8371872 365.762008,84.6279064 Z M390.908876,114.645876 C390.006488,113.256321 388.142882,112.865043 386.75586,113.765786 L356.569894,133.368781 C355.178634,134.272276 354.784161,136.133988 355.684712,137.520715 C356.587099,138.91027 358.450705,139.301548 359.837728,138.400805 L390.023694,118.797809 C391.414954,117.894315 391.809427,116.032603 390.908876,114.645876 Z M409.214152,148.563137 C408.593484,147.026929 406.838777,146.287247 405.305368,146.906784 L371.933575,160.389864 C370.395482,161.011294 369.653025,162.763532 370.27243,164.296614 C370.893099,165.832823 372.647806,166.572504 374.181215,165.952967 L407.553007,152.469888 C409.091101,151.848457 409.833558,150.09622 409.214152,148.563137 Z M420.804747,186.536122 C420.488604,184.909709 418.907274,183.848803 417.283825,184.16437 L381.952473,191.032089 C380.324064,191.34862 379.260906,192.926996 379.576405,194.5501 C379.892548,196.176513 381.473878,197.237419 383.097327,196.921852 L418.428678,190.054133 C420.057087,189.737602 421.120246,188.159226 420.804747,186.536122 Z M424.190576,224.790071 C424.190576,223.133217 422.84073,221.790071 421.186895,221.790071 L385.194257,221.790071 C383.53537,221.790071 382.190576,223.136588 382.190576,224.790071 C382.190576,226.446925 383.540422,227.790071 385.194257,227.790071 L421.186895,227.790071 C422.845782,227.790071 424.190576,226.443554 424.190576,224.790071 Z M420.060668,263.739232 C420.376811,262.112818 419.308049,260.536787 417.6846,260.221221 L382.353249,253.353502 C380.72484,253.036971 379.147826,254.10215 378.832327,255.725254 C378.516184,257.351667 379.584945,258.927698 381.208395,259.243265 L416.539746,266.110984 C418.168155,266.427514 419.745169,265.362335 420.060668,263.739232 Z M408.627396,301.378892 C409.27478,299.853749 408.557049,298.08995 407.034686,297.443745 L373.903289,283.380301 C372.376275,282.732123 370.612259,283.446145 369.966192,284.968184 C369.318808,286.493327 370.036539,288.257126 371.558902,288.903331 L404.690299,302.966774 C406.217313,303.614953 407.981329,302.900931 408.627396,301.378892 Z M389.605773,335.428415 C390.556106,334.0712 390.220773,332.196719 388.866031,331.248118 L359.382588,310.60359 C358.023707,309.652091 356.149786,309.983751 355.201387,311.338205 C354.251055,312.69542 354.586387,314.569901 355.94113,315.518502 L385.424572,336.163031 C386.783453,337.114529 388.657374,336.782869 389.605773,335.428415 Z M366.509716,366.012575 C367.660664,364.820733 367.622693,362.916873 366.433024,361.768023 L340.542087,336.765436 C339.348783,335.613076 337.44605,335.647507 336.297444,336.836923 C335.146497,338.028764 335.184467,339.932624 336.374137,341.081475 L362.265073,366.084062 C363.458377,367.236422 365.36111,367.201991 366.509716,366.012575 Z M335.466746,389.71618 C336.84034,388.789679 337.199034,386.919528 336.274221,385.548437 L316.147394,355.709188 C315.219756,354.333908 313.351443,353.971986 311.980644,354.896602 C310.607049,355.823103 310.248356,357.693254 311.173168,359.064345 L331.299996,388.903594 C332.227634,390.278874 334.095946,390.640796 335.466746,389.71618 Z M301.008351,408.114326 C302.521962,407.440422 303.199955,405.66097 302.52728,404.150116 L287.887755,371.269206 C287.213025,369.753737 285.435944,369.072884 283.925412,369.745416 C282.4118,370.41932 281.733807,372.198772 282.406483,373.709626 L297.046007,406.590536 C297.720737,408.106005 299.497819,408.786858 301.008351,408.114326 Z M264.409063,419.980914 C266.029711,419.636435 267.062857,418.03683 266.719005,416.419135 L259.235715,381.213023 C258.890813,379.590387 257.294122,378.554937 255.676772,378.898715 C254.056124,379.243194 253.022978,380.842799 253.366829,382.460494 L260.85012,417.666606 C261.195022,419.289242 262.791712,420.324693 264.409063,419.980914 Z M225,424.333182 C226.656854,424.333182 228,422.983336 228,421.329501 L228,385.336863 C228,383.677976 226.653483,382.333182 225,382.333182 C223.343146,382.333182 222,383.683028 222,385.336863 L222,421.329501 C222,422.988388 223.346517,424.333182 225,424.333182 Z M185.993207,420.300358 C187.613855,420.644837 189.208298,419.603744 189.55215,417.986049 L197.03544,382.779937 C197.380342,381.157301 196.342848,379.561937 194.725498,379.218159 C193.10485,378.873679 191.510406,379.914772 191.166555,381.532467 L183.683264,416.738579 C183.338362,418.361216 184.375857,419.956579 185.993207,420.300358 Z M147.991649,409.114326 C149.505261,409.788229 151.281318,409.10139 151.953993,407.590536 L166.593518,374.709626 C167.268248,373.194157 166.58512,371.417948 165.074588,370.745416 C163.560977,370.071513 161.78492,370.758352 161.112245,372.269206 L146.47272,405.150116 C145.79799,406.665585 146.481118,408.441794 147.991649,409.114326 Z M114.585865,390.022571 C115.959459,390.949072 117.827802,390.581076 118.752615,389.209985 L138.879442,359.370736 C139.80708,357.995456 139.442766,356.127609 138.071967,355.202993 C136.698372,354.276492 134.83003,354.644488 133.905217,356.015579 L113.778389,385.854828 C112.850751,387.230108 113.215065,389.097955 114.585865,390.022571 Z M83.4574545,366.964563 C84.6084021,368.156404 86.5124277,368.1849 87.702097,367.03605 L113.593034,342.033463 C114.786337,340.881103 114.818332,338.978327 113.669726,337.788911 C112.518778,336.59707 110.614753,336.568574 109.425084,337.717424 L83.5341468,362.720011 C82.3408431,363.872371 82.3088487,365.775146 83.4574545,366.964563 Z M58.984338,335.82073 C59.8867255,337.210285 61.7503314,337.601563 63.1373541,336.70082 L93.3233199,317.097824 C94.7145799,316.194329 95.1090532,314.332618 94.2085018,312.94589 C93.3061143,311.556336 91.4425084,311.165058 90.0554857,312.065801 L59.8695199,331.668796 C58.4782599,332.572291 58.0837867,334.434003 58.984338,335.82073 Z M41.3726042,301.11536 C42.0199888,302.640502 43.7873377,303.349448 45.3097008,302.703243 L78.4410983,288.639799 C79.9681122,287.99162 80.6798753,286.226692 80.0338081,284.704653 C79.3864235,283.17951 77.6190746,282.470565 76.0967115,283.11677 L42.965314,297.180214 C41.4383002,297.828393 40.726537,299.593321 41.3726042,301.11536 Z M29.9393318,263.230085 C30.2554745,264.856498 31.8368046,265.917403 33.460254,265.601837 L68.7916054,258.734118 C70.4200143,258.417587 71.4831729,256.83921 71.1676735,255.216107 C70.8515308,253.589694 69.2702007,252.528788 67.6467514,252.844355 L32.3154,259.712074 C30.6869911,260.028604 29.6238324,261.606981 29.9393318,263.230085 Z M25.8094242,224.790071 C25.8094242,226.446925 27.1592705,227.790071 28.8131055,227.790071 L64.805743,227.790071 C66.4646303,227.790071 67.8094242,226.443554 67.8094242,224.790071 C67.8094242,223.133217 66.4595779,221.790071 64.805743,221.790071 L28.8131055,221.790071 C27.1542181,221.790071 25.8094242,223.136588 25.8094242,224.790071 Z M30.1952533,186.536122 C29.8791106,188.162536 30.9478721,189.738567 32.5713215,190.054133 L67.9026729,196.921852 C69.5310818,197.238383 71.1080956,196.173204 71.423595,194.5501 C71.7397377,192.923687 70.6709762,191.347656 69.0475269,191.032089 L33.7161755,184.16437 C32.0877666,183.84784 30.5107527,184.913019 30.1952533,186.536122 Z M41.0826416,149.243348 C40.4619731,150.779557 41.2103775,152.530561 42.7437866,153.150099 L76.115579,166.633178 C77.6536725,167.254608 79.4049579,166.509908 80.0243635,164.976825 C80.645032,163.440617 79.8966276,161.689612 78.3632185,161.070075 L44.9914261,147.586996 C43.4533326,146.965565 41.7020472,147.710266 41.0826416,149.243348 Z M59.091124,114.645876 C58.1887365,116.035431 58.5892833,117.897067 59.976306,118.79781 L90.1622717,138.400805 C91.5535317,139.3043 93.4147366,138.907443 94.3152879,137.520715 C95.2176754,136.131161 94.8171287,134.269525 93.4301059,133.368782 L63.2441402,113.765786 C61.8528802,112.862292 59.9916754,113.259149 59.091124,114.645876 Z M84.0234827,84.1471949 C82.8519098,85.3187678 82.8566478,87.2230007 84.0260857,88.3924386 L109.476724,113.843077 C110.649734,115.016087 112.552779,115.014869 113.721968,113.84568 C114.89354,112.674107 114.888802,110.769874 113.719365,109.600436 L88.2687264,84.1497979 C87.0957159,82.9767874 85.1926717,82.9780059 84.0234827,84.1471949 Z M114.533254,59.6170022 C113.15966,60.5435033 112.800966,62.4136542 113.725779,63.7847455 L133.852606,93.6239943 C134.780244,94.9992743 136.648557,95.3611961 138.019356,94.4365802 C139.392951,93.5100791 139.751644,91.6399282 138.826832,90.2688369 L118.700004,60.4295881 C117.772366,59.0543081 115.904054,58.6923863 114.533254,59.6170022 Z M148.894003,41.3000265 C147.368861,41.9474111 146.659915,43.71476 147.30612,45.2371231 L161.369564,78.3685206 C162.017743,79.8955345 163.782671,80.6072976 165.30471,79.9612304 C166.829853,79.3138459 167.538798,77.546497 166.892593,76.0241339 L152.829149,42.8927363 C152.18097,41.3657225 150.416042,40.6539593 148.894003,41.3000265 Z M186.354231,29.5334253 C184.727817,29.849568 183.666912,31.4308981 183.982478,33.0543474 L190.850197,68.3856988 C191.166728,70.0141077 192.745105,71.0772664 194.368208,70.761767 C195.994622,70.4456243 197.055527,68.8642942 196.739961,67.2408448 L189.872242,31.9094934 C189.555711,30.2810845 187.977334,29.2179259 186.354231,29.5334253 Z" id="Rectangle-1" fill="url(#linearGradient-6)" sketch:type="MSShapeGroup"></path>
            <path d="M227.995151,25.626363 C226.339306,25.5685396 224.950106,26.8639276 224.892232,28.521223 L224.333937,44.5087041 C224.276086,46.1653145 225.574886,47.5552554 227.227362,47.6129612 C228.883207,47.6707845 230.272407,46.3753965 230.330281,44.7181011 L230.888577,28.73062 C230.946427,27.0740096 229.647627,25.6840687 227.995151,25.626363 Z M266.614968,29.5359407 C264.988555,29.2197981 263.413814,30.2819188 263.097395,31.9097568 L260.04498,47.6130688 C259.728691,49.2402339 260.794066,50.8162394 262.41717,51.1317388 C264.043583,51.4478815 265.618324,50.3857607 265.934743,48.7579228 L268.987158,33.0546107 C269.303447,31.4274457 268.238072,29.8514402 266.614968,29.5359407 Z M303.029017,41.8052294 C301.503875,41.1578449 299.742719,41.8693488 299.094767,43.3958273 L292.844153,58.1213515 C292.196469,59.647199 292.910893,61.4102689 294.432932,62.0563362 C295.958075,62.7037207 297.719231,61.9922167 298.367182,60.4657383 L304.617796,45.740214 C305.26548,44.2143666 304.551056,42.4512966 303.029017,41.8052294 Z M337.757993,60.0526518 C336.400777,59.1023192 334.530177,59.4321102 333.579012,60.7905147 L324.40338,73.8946752 C323.452608,75.2525182 323.784857,77.1255979 325.139311,78.0739967 C326.496527,79.0243293 328.367127,78.6945383 329.318292,77.3361338 L338.493924,64.2319733 C339.444696,62.8741303 339.112447,61.0010506 337.757993,60.0526518 Z M368.016217,84.705623 C366.844644,83.5340502 364.945195,83.5340046 363.772595,84.7066038 L352.460848,96.0183508 C351.288734,97.1904653 351.290679,99.0927833 352.459868,100.261972 C353.63144,101.433545 355.53089,101.433591 356.703489,100.260992 L368.015236,88.9492444 C369.187351,87.7771299 369.185406,85.874812 368.016217,84.705623 Z M380.70929,100.031239 C379.735416,98.6908159 377.859359,98.3936315 376.517762,99.3683591 L363.575734,108.771293 C362.234691,109.745617 361.939024,111.624819 362.910917,112.962515 C363.884791,114.302938 365.760848,114.600122 367.102445,113.625395 L380.044473,104.222461 C381.385516,103.248136 381.681183,101.368935 380.70929,100.031239 Z M392.690535,115.74033 C391.788147,114.350775 389.930215,113.955813 388.539443,114.858991 L375.12304,123.571705 C373.732843,124.474509 373.339231,126.335662 374.239782,127.722389 C375.14217,129.111944 377.000102,129.506906 378.390874,128.603728 L391.807277,119.891014 C393.197474,118.98821 393.591086,117.127058 392.690535,115.74033 Z M410.873655,149.779565 C410.252986,148.243357 408.504552,147.501141 406.966997,148.122353 L392.134628,154.115019 C390.597709,154.735975 389.856204,156.487828 390.47561,158.02091 C391.096278,159.557119 392.844713,160.299335 394.382267,159.678122 L409.214637,153.685456 C410.751556,153.064501 411.49306,151.312648 410.873655,149.779565 Z M421.913033,187.063159 C421.568553,185.442511 419.975566,184.407958 418.353498,184.752739 L402.70585,188.07875 C401.084453,188.423388 400.050007,190.019866 400.393785,191.637216 C400.738265,193.257864 402.331252,194.292416 403.95332,193.947635 L419.600968,190.621625 C421.222366,190.276986 422.256811,188.680509 421.913033,187.063159 Z M425.740374,225.831385 C425.740374,224.174531 424.397293,222.831385 422.738987,222.831385 L406.741761,222.831385 C405.084141,222.831385 403.740374,224.177902 403.740374,225.831385 C403.740374,227.48824 405.083456,228.831385 406.741761,228.831385 L422.738987,228.831385 C424.396608,228.831385 425.740374,227.484868 425.740374,225.831385 Z M421.509825,265.403784 C421.854304,263.783136 420.819828,262.190099 419.19776,261.845318 L403.550112,258.519308 C401.928715,258.174669 400.334356,259.212377 399.990577,260.829727 C399.646098,262.450375 400.680574,264.043412 402.302642,264.388193 L417.95029,267.714204 C419.571687,268.058842 421.166046,267.021134 421.509825,265.403784 Z M409.972556,301.513487 C410.539233,299.956553 409.736532,298.235049 408.178235,297.667875 L393.145759,292.196501 C391.588106,291.629561 389.864842,292.435278 389.299318,293.989044 C388.73264,295.545978 389.535341,297.267483 391.093639,297.834657 L406.126114,303.30603 C407.683767,303.87297 409.407031,303.067253 409.972556,301.513487 Z M390.221507,336.825997 C391.17184,335.468782 390.842049,333.598182 389.483644,332.647017 L376.379484,323.471385 C375.021641,322.520613 373.148561,322.852862 372.200162,324.207316 C371.24983,325.564531 371.579621,327.435132 372.938025,328.386297 L386.042186,337.561929 C387.400029,338.512701 389.273108,338.180451 390.221507,336.825997 Z M366.154064,366.44293 C367.305012,365.251088 367.271908,363.351928 366.079022,362.199972 L354.571581,351.087365 C353.379189,349.935885 351.477195,349.971029 350.328589,351.160445 C349.177641,352.352287 349.210746,354.251447 350.403631,355.403403 L361.911072,366.51601 C363.103464,367.66749 365.005459,367.632346 366.154064,366.44293 Z M335.732894,391.101481 C337.106488,390.17498 337.468965,388.310437 336.541652,386.93564 L327.596117,373.673338 C326.669187,372.299109 324.801449,371.938039 323.43065,372.862654 C322.057055,373.789156 321.694579,375.653698 322.621891,377.028496 L331.567427,390.290797 C332.494356,391.665027 334.362094,392.026097 335.732894,391.101481 Z M301.199299,409.461223 C302.712911,408.78732 303.393655,407.014048 302.719161,405.49911 L296.212503,390.884917 C295.538288,389.370605 293.761625,388.690691 292.251093,389.363223 C290.737481,390.037127 290.056737,391.810399 290.731231,393.325337 L297.237889,407.93953 C297.912104,409.453841 299.688767,410.133756 301.199299,409.461223 Z M264.331075,421.038127 C265.951723,420.693648 266.986276,419.10066 266.641495,417.478593 L263.315484,401.830944 C262.970846,400.209547 261.374368,399.175101 259.757018,399.51888 C258.13637,399.863359 257.101818,401.456347 257.446599,403.078414 L260.772609,418.726063 C261.117248,420.34746 262.713725,421.381906 264.331075,421.038127 Z M225.054121,424.039782 C226.710975,424.039782 228.054121,422.696701 228.054121,421.038395 L228.054121,405.041169 C228.054121,403.383549 226.707603,402.039782 225.054121,402.039782 C223.397266,402.039782 222.054121,403.382863 222.054121,405.041169 L222.054121,421.038395 C222.054121,422.696015 223.400638,424.039782 225.054121,424.039782 Z M185.999738,420.04905 C187.614127,420.421761 189.224975,419.415245 189.598013,417.799442 L193.196606,402.212224 C193.569489,400.597088 192.559765,398.984862 190.948661,398.612909 C189.334272,398.240198 187.723423,399.246714 187.350385,400.862517 L183.751792,416.449735 C183.378909,418.064871 184.388633,419.677098 185.999738,420.04905 Z M149.075011,408.371014 C150.61122,408.991682 152.35969,408.24955 152.980902,406.711996 L158.973568,391.879626 C159.594524,390.342708 158.849439,388.592375 157.316356,387.972969 C155.780148,387.3523 154.031677,388.094432 153.410465,389.631987 L147.417799,404.464356 C146.796843,406.001275 147.541928,407.751608 149.075011,408.371014 Z M114.456457,389.416542 C115.846012,390.31893 117.703963,389.924056 118.607141,388.533284 L127.319855,375.116882 C128.222659,373.726684 127.825243,371.866341 126.438516,370.96579 C125.048961,370.063402 123.191009,370.458275 122.287831,371.849047 L113.575118,385.26545 C112.672313,386.655647 113.069729,388.515991 114.456457,389.416542 Z M84.2872737,365.471549 C85.4588466,366.643122 87.358296,366.643167 88.5308951,365.470568 L99.8426422,354.158821 C101.014757,352.986707 101.012812,351.084389 99.8436229,349.9152 C98.6720501,348.743627 96.7726007,348.743581 95.6000015,349.916181 L84.2882545,361.227928 C83.11614,362.400042 83.1180848,364.30236 84.2872737,365.471549 Z M59.6923357,333.928455 C60.5703347,335.333547 62.421091,335.760874 63.827414,334.882106 L77.3938311,326.404868 C78.7995728,325.526463 79.2256062,323.672464 78.3493938,322.270231 C77.4713948,320.865139 75.6206385,320.437811 74.2143155,321.31658 L60.6478984,329.793818 C59.2421567,330.672223 58.8161233,332.526222 59.6923357,333.928455 Z M41.8224722,300.249926 C42.4431408,301.786135 44.1915753,302.528351 45.7291295,301.907139 L60.5614993,295.914472 C62.098418,295.293517 62.8399226,293.541664 62.220517,292.008581 C61.5998485,290.472373 59.851414,289.730157 58.3138598,290.351369 L43.48149,296.344036 C41.9445713,296.964991 41.2030667,298.716844 41.8224722,300.249926 Z M30.5819091,262.361389 C30.8980518,263.987802 32.4727412,265.049999 34.1005791,264.733579 L49.8038911,261.681164 C51.4310562,261.364875 52.4932065,259.786695 52.1777071,258.163591 C51.8615644,256.537178 50.2868751,255.474982 48.6590371,255.791401 L32.9557251,258.843816 C31.32856,259.160105 30.2664097,260.738285 30.5819091,262.361389 Z M27.6825726,223.289242 C27.6825726,224.946097 29.0256539,226.289242 30.6839595,226.289242 L46.6811856,226.289242 C48.3388059,226.289242 49.6825726,224.942725 49.6825726,223.289242 C49.6825726,221.632388 48.3394913,220.289242 46.6811856,220.289242 L30.6839595,220.289242 C29.0263393,220.289242 27.6825726,221.63576 27.6825726,223.289242 Z M30.5827531,185.032844 C30.323564,186.6693 31.4399954,188.206014 33.0778846,188.46543 L48.8781583,190.967947 C50.5153705,191.227256 52.0532349,190.107528 52.3118966,188.474403 C52.5710857,186.837947 51.4546543,185.301233 49.8167651,185.041817 L34.0164914,182.5393 C32.3792792,182.279991 30.8414148,183.399719 30.5827531,185.032844 Z M42.4761792,147.50927 C41.8287947,149.034412 42.5402986,150.795568 44.0667771,151.44352 L58.7923014,157.694134 C60.3181488,158.341818 62.0812187,157.627394 62.727286,156.105355 C63.3746705,154.580213 62.6631665,152.819057 61.1366881,152.171105 L46.4111638,145.920491 C44.8853164,145.272807 43.1222464,145.987231 42.4761792,147.50927 Z M61.7445517,114.048721 C60.8180506,115.422316 61.1804378,117.286876 62.5552355,118.214188 L75.817537,127.159724 C77.1917665,128.086653 79.0587624,127.721765 79.9833783,126.350965 C80.9098794,124.977371 80.5474922,123.112811 79.1726945,122.185498 L65.910393,113.239963 C64.5361635,112.313033 62.6691676,112.677922 61.7445517,114.048721 Z M86.5408812,83.8631357 C85.3693083,85.0347085 85.3692627,86.9341579 86.5418619,88.1067571 L97.8536089,99.4185041 C99.0257234,100.590619 100.928041,100.588674 102.09723,99.4194848 C103.268803,98.247912 103.268849,96.3484626 102.09625,95.1758634 L90.7845026,83.8641164 C89.612388,82.6920019 87.7100701,82.6939467 86.5408812,83.8631357 Z M116.508852,59.5986325 C115.151637,60.5489651 114.821756,62.4195496 115.772921,63.7779541 L124.948553,76.8821145 C125.899325,78.2399575 127.77308,78.5683763 129.127534,77.6199775 C130.484749,76.6696449 130.81463,74.7990604 129.863465,73.4406559 L120.687833,60.3364954 C119.737061,58.9786524 117.863306,58.6502337 116.508852,59.5986325 Z M150.865143,41.116189 C149.340001,41.7635736 148.628412,43.5246953 149.276364,45.0511737 L155.526978,59.776698 C156.174662,61.3025454 157.939189,62.0133631 159.461228,61.3672958 C160.986371,60.7199113 161.697959,58.9587896 161.050007,57.4323112 L154.799393,42.7067869 C154.151709,41.1809394 152.387182,40.4701218 150.865143,41.116189 Z M188.551828,29.7203672 C186.93118,30.0648466 185.896628,31.657834 186.241409,33.2799017 L189.567419,48.9275501 C189.912058,50.5489473 191.508535,51.5833929 193.125885,51.2396144 C194.746533,50.8951351 195.781086,49.3021477 195.436305,47.6800799 L192.110295,32.0324316 C191.765656,30.4110343 190.169179,29.3765888 188.551828,29.7203672 Z" id="Rectangle-33" fill="url(#linearGradient-7)" sketch:type="MSShapeGroup" transform="translate(226.689031, 224.933247) rotate(-6.000000) translate(-226.689031, -224.933247) "></path>
            <path d="M193.595228,204.852397 C193.595228,204.852397 185.137483,400.286466 184.975479,400.285258 C174.032814,400.203715 150.596119,400.037028 150.596119,400.037028 L193.595228,204.852397 Z" id="Triangle-1" fill="#ACACAC" filter="url(#filter-8)" sketch:type="MSShapeGroup" transform="translate(171.891252, 302.759454) rotate(-138.000000) translate(-171.891252, -302.759454) "></path>
            <polygon id="Triangle-3" fill="#EDEDED" sketch:type="MSShapeGroup" transform="translate(147.422914, 278.634947) scale(-1, 1) rotate(-227.000000) translate(-147.422914, -278.634947) " points="168.761364 180.278265 160.227404 376.657629 126.176489 369.693442 "></polygon>
            <polygon id="Triangle-2" fill="#FE4F4F" sketch:type="MSShapeGroup" transform="translate(275.641324, 136.253959) rotate(-323.000000) translate(-275.641324, -136.253959) " points="297.979773 39.3972771 288.508637 233.382552 253.806219 233.745223 "></polygon>
            <path d="M279.626053,253.517769 C294.556331,189.602242 324.416887,61.7711867 324.416887,61.7711867 L313.576191,255.461388 L279.172035,255.461388 L279.626053,253.517769 Z" id="Triangle-4" fill="#CF1D13" filter="url(#filter-9)" sketch:type="MSShapeGroup" transform="translate(301.978771, 158.603409) scale(-1, 1) rotate(-43.000000) translate(-301.978771, -158.603409) "></path>
        </g>
    </g>
</svg>