<?xml version="1.0" encoding="UTF-8" standalone="no"?>
<svg
   xmlns:dc="http://purl.org/dc/elements/1.1/"
   xmlns:cc="http://creativecommons.org/ns#"
   xmlns:rdf="http://www.w3.org/1999/02/22-rdf-syntax-ns#"
   xmlns:svg="http://www.w3.org/2000/svg"
   xmlns="http://www.w3.org/2000/svg"
   viewBox="0 0 1365.3333 1365.3333"
   height="1365.3333"
   width="1365.3333"
   xml:space="preserve"
   version="1.1"
   id="svg2"><defs
     id="defs6"><clipPath
       id="clipPath16"
       clipPathUnits="userSpaceOnUse"><path
         id="path18"
         d="m 0,1024 1024,0 L 1024,0 0,0 0,1024 Z" /></clipPath><clipPath
       id="clipPath24"
       clipPathUnits="userSpaceOnUse"><path
         id="path26"
         d="m 0.129227,1023.87 1023.740773,0 0,-1023.740773 -1023.740773,0 0,1023.740773 z" /></clipPath><clipPath
       id="clipPath40"
       clipPathUnits="userSpaceOnUse"><path
         id="path42"
         d="m 36.7426,987.257 950.5144,0 0,-950.5144 -950.5144,0 0,950.5144 z" /></clipPath><radialGradient
       id="radialGradient64"
       spreadMethod="pad"
       gradientTransform="matrix(502.85715,0,0,-502.85715,514.99323,634.72107)"
       gradientUnits="userSpaceOnUse"
       r="1"
       cy="0"
       cx="0"
       fy="0"
       fx="0"><stop
         id="stop66"
         offset="0"
         style="stop-opacity:1;stop-color:#ff5b5b" /><stop
         id="stop68"
         offset="1"
         style="stop-opacity:1;stop-color:#ef3939" /></radialGradient><clipPath
       id="clipPath76"
       clipPathUnits="userSpaceOnUse"><path
         id="path78"
         d="m 0,1024 1024,0 L 1024,0 0,0 0,1024 Z" /></clipPath><clipPath
       id="clipPath92"
       clipPathUnits="userSpaceOnUse"><path
         id="path94"
         d="M 692,497.001 484.611,213.456 770.408,71 923,71 c 16.5,0 30,13.5 30,30 l 0,0 0,616.634 L 803.24,797.41 692,497.001 Z" /></clipPath><linearGradient
       id="linearGradient104"
       spreadMethod="pad"
       gradientTransform="matrix(427.47324,-277.60437,-277.60437,-427.47324,626.60748,525.41901)"
       gradientUnits="userSpaceOnUse"
       y2="0"
       x2="1"
       y1="0"
       x1="0"><stop
         id="stop106"
         offset="0"
         style="stop-opacity:0.29999237;stop-color:#ffffff" /><stop
         id="stop108"
         offset="0.131677"
         style="stop-opacity:0.29999237;stop-color:#ffffff" /><stop
         id="stop110"
         offset="0.547321"
         style="stop-opacity:0;stop-color:#ffffff" /><stop
         id="stop112"
         offset="1"
         style="stop-opacity:0;stop-color:#ffffff" /></linearGradient><mask
       id="mask114"
       height="1"
       width="1"
       y="0"
       x="0"
       maskUnits="userSpaceOnUse"><g
         id="g116"><g
           id="g118"><g
             id="g120"><g
               id="g122"><path
                 id="path124"
                 style="fill:url(#linearGradient104);stroke:none"
                 d="m -32768,32767 65535,0 0,-65535 -65535,0 0,65535 z" /></g></g></g></g></mask><linearGradient
       id="linearGradient130"
       spreadMethod="pad"
       gradientTransform="matrix(427.47324,-277.60437,-277.60437,-427.47324,626.60748,525.41901)"
       gradientUnits="userSpaceOnUse"
       y2="0"
       x2="1"
       y1="0"
       x1="0"><stop
         id="stop132"
         offset="0"
         style="stop-opacity:1;stop-color:#231f20" /><stop
         id="stop134"
         offset="0.131677"
         style="stop-opacity:1;stop-color:#231f20" /><stop
         id="stop136"
         offset="0.547321"
         style="stop-opacity:1;stop-color:#000000" /><stop
         id="stop138"
         offset="1"
         style="stop-opacity:1;stop-color:#000000" /></linearGradient><clipPath
       id="clipPath146"
       clipPathUnits="userSpaceOnUse"><path
         id="path148"
         d="m 0,1024 1024,0 L 1024,0 0,0 0,1024 Z" /></clipPath></defs><g
     transform="matrix(1.3333333,0,0,-1.3333333,0,1365.3333)"
     id="g10"><g
       id="g12"><g
         clip-path="url(#clipPath16)"
         id="g14"><g
           id="g20"><g
             id="g28"><g
               style="opacity:0.5"
               id="g30"
               clip-path="url(#clipPath24)"><g
                 id="g32"
                 transform="translate(999.5955,157.5249)"><path
                   id="path34"
                   style="fill:#ef3939;fill-opacity:1;fill-rule:nonzero;stroke:none"
                   d="m 0,0 -806.898,-156.845 c -16.196,-3.148 -32.024,7.528 -35.173,23.725 l -156.845,806.897 c -3.148,16.197 7.528,32.025 23.725,35.173 l 806.897,156.845 c 16.197,3.148 32.025,-7.528 35.174,-23.724 L 23.725,35.173 C 26.873,18.976 16.197,3.148 0,0" /></g></g></g></g><g
           id="g36"><g
             id="g44"><g
               style="opacity:0.5"
               id="g46"
               clip-path="url(#clipPath40)"><g
                 id="g48"
                 transform="translate(959.8717,108.4991)"><path
                   id="path50"
                   style="fill:#ef3939;fill-opacity:1;fill-rule:nonzero;stroke:none"
                   d="m 0,0 -818.872,-71.642 c -16.437,-1.438 -31.062,10.834 -32.501,27.271 l -71.642,818.872 c -1.438,16.437 10.834,31.063 27.272,32.501 l 818.872,71.642 c 16.437,1.438 31.062,-10.834 32.5,-27.271 L 27.271,32.501 C 28.709,16.063 16.437,1.438 0,0" /></g></g></g></g></g></g><g
       id="g52"><g
         id="g54"><g
           id="g60"><g
             id="g62"><path
               id="path70"
               style="fill:url(#radialGradient64);stroke:none"
               d="M 101,952 C 85.01,952 72,938.991 72,923 l 0,0 0,-822 C 72,85.01 85.01,72 101,72 l 0,0 822,0 c 15.99,0 29,13.01 29,29 l 0,0 0,822 c 0,15.991 -13.01,29 -29,29 l 0,0 -822,0 z" /></g></g></g></g><g
       id="g72"><g
         clip-path="url(#clipPath76)"
         id="g74"><g
           transform="translate(923,953)"
           id="g80"><path
             id="path82"
             style="fill:#d03131;fill-opacity:1;fill-rule:nonzero;stroke:none"
             d="m 0,0 -822,0 c -16.5,0 -30,-13.5 -30,-30 l 0,-822 c 0,-16.5 13.5,-30 30,-30 l 822,0 c 16.5,0 30,13.5 30,30 l 0,822 C 30,-13.5 16.5,0 0,0 m 0,-2 c 15.439,0 28,-12.561 28,-28 l 0,-822 c 0,-15.439 -12.561,-28 -28,-28 l -822,0 c -15.439,0 -28,12.561 -28,28 l 0,822 c 0,15.439 12.561,28 28,28 L 0,-2" /></g><g
           transform="translate(923,91)"
           id="g84"><path
             id="path86"
             style="fill:#dc312c;fill-opacity:1;fill-rule:nonzero;stroke:none"
             d="m 0,0 -822,0 c -16.5,0 -30,13.5 -30,30 l 0,-20 c 0,-16.5 13.5,-30 30,-30 l 822,0 c 16.5,0 30,13.5 30,30 l 0,20 C 30,13.5 16.5,0 0,0" /></g></g></g><g
       id="g88"><g
         clip-path="url(#clipPath92)"
         id="g90"><g
           id="g96"><g
             mask="url(#mask114)"
             id="g126"><g
               id="g128"><path
                 id="path140"
                 style="fill:url(#linearGradient130);stroke:none"
                 d="M 692,497.001 484.611,213.456 770.408,71 923,71 c 16.5,0 30,13.5 30,30 l 0,0 0,616.634 L 803.24,797.41 692,497.001 Z" /></g></g></g></g></g><g
       id="g142"><g
         clip-path="url(#clipPath146)"
         id="g144"><g
           transform="translate(689.184,686.4406)"
           id="g150"><path
             id="path152"
             style="fill:#ffffff;fill-opacity:1;fill-rule:nonzero;stroke:none"
             d="m 0,0 c -25.476,50.941 1.656,108.056 57.085,120.318 45.107,9.961 91.785,-23.154 97.766,-68.886 2.618,-20.093 -1.369,-38.494 -11.353,-55.796 -82.207,-142.54 -164.514,-285.014 -246.585,-427.622 -15.256,-26.486 -37.421,-42.519 -67.847,-44.718 -34.075,-2.469 -60.835,11.856 -78.016,41.352 -52.017,89.333 -103.459,179.022 -155.121,268.558 -31.423,54.493 -62.947,108.918 -94.235,163.479 -31.558,55.017 4.038,121.924 67.356,125.172 33.434,1.708 59.231,-13.666 76.192,-42.654 23.196,-39.627 45.952,-79.524 68.911,-119.286 16.556,-28.651 32.775,-57.487 49.787,-85.85 24.648,-41.132 60.869,-64.336 109.085,-67.228 68.251,-4.059 131.621,45.276 139.798,117.73 0.608,5.412 1.013,10.824 1.267,13.598 C 13.718,-38.392 9.326,-18.638 0,0" /></g><g
           transform="translate(314.4265,765.6432)"
           id="g154"><path
             id="path156"
             style="fill:#f8dbdc;fill-opacity:1;fill-rule:nonzero;stroke:none"
             d="m 0,0 c 23.195,-39.627 45.952,-79.524 68.911,-119.286 16.556,-28.65 32.774,-57.486 49.786,-85.849 24.649,-41.132 60.87,-64.336 109.085,-67.229 6.007,-0.357 11.974,-0.292 17.871,0.157 -47.15,3.443 -82.673,26.55 -106.956,67.072 -17.012,28.363 -33.23,57.199 -49.786,85.849 C 65.952,-79.524 43.195,-39.627 20,0 3.038,28.989 -22.759,44.362 -56.192,42.654 -57.92,42.565 -59.624,42.421 -61.311,42.239 -35.032,39.307 -14.352,24.529 0,0" /></g><g
           transform="translate(844.0346,737.8724)"
           id="g158"><path
             id="path160"
             style="fill:#f8dbdc;fill-opacity:1;fill-rule:nonzero;stroke:none"
             d="M 0,0 C -5.7,43.588 -48.372,75.715 -91.416,70.006 -55.946,65.394 -24.81,36.781 -20,0 c 2.619,-20.092 -1.368,-38.493 -11.353,-55.795 -82.206,-142.541 -164.514,-285.015 -246.585,-427.623 -14.778,-25.658 -36.041,-41.506 -65.018,-44.471 5.495,-0.585 11.219,-0.678 17.172,-0.247 30.426,2.199 52.591,18.232 67.846,44.718 82.071,142.608 164.379,285.082 246.585,427.623 C -1.368,-38.493 2.619,-20.092 0,0" /></g></g></g></g></svg>