<?xml version="1.0" standalone="no"?><!-- Generator: Gravit.io --><svg xmlns="http://www.w3.org/2000/svg" xmlns:xlink="http://www.w3.org/1999/xlink" style="isolation:isolate" viewBox="0 0 500 500" width="500" height="500"><g><g><g><circle vector-effect="non-scaling-stroke" cx="0" cy="0" r="1" transform="matrix(250,0,0,250,250,250)" fill="rgb(66,66,66)"/><path d=" M 150 219 L 236.603 269 L 236.603 369 L 150 419 L 63.397 369 L 63.397 269 L 150 219 Z " fill-rule="evenodd" fill="rgb(241,104,43)"/><path d=" M 126.244 309.222 L 126.244 330.638 L 121.718 330.638 L 121.718 321.395 L 113.236 321.395 L 113.236 330.638 L 108.695 330.638 L 108.695 309.222 L 113.236 309.222 L 113.236 317.616 L 121.718 317.616 L 121.718 309.222 L 126.244 309.222 L 126.244 309.222 Z  M 139.911 313.001 L 139.911 330.638 L 135.37 330.638 L 135.37 313.001 L 129.555 313.001 L 129.555 309.222 L 145.727 309.222 L 145.727 313.001 L 139.911 313.001 L 139.911 313.001 Z  M 162.25 330.638 L 158.09 330.638 L 152.934 313.836 L 152.802 313.836 L 152.802 313.836 Q 153.08 318.963 153.08 320.677 L 153.08 320.677 L 153.08 330.638 L 149.022 330.638 L 149.022 309.222 L 155.204 309.222 L 160.272 325.599 L 160.36 325.599 L 165.736 309.222 L 171.918 309.222 L 171.918 330.638 L 167.685 330.638 L 167.685 320.501 L 167.685 320.501 Q 167.685 319.784 167.707 318.846 L 167.707 318.846 L 167.707 318.846 Q 167.729 317.909 167.904 313.866 L 167.904 313.866 L 167.772 313.866 L 162.25 330.638 L 162.25 330.638 Z  M 190.536 330.638 L 177.309 330.638 L 177.309 309.222 L 181.85 309.222 L 181.85 326.888 L 190.536 326.888 L 190.536 330.638 L 190.536 330.638 Z " fill-rule="evenodd" fill="rgb(255,255,255)"/><path d=" M 250 50 L 336.603 100 L 336.603 200 L 250 250 L 163.397 200 L 163.397 100 L 250 50 Z " fill-rule="evenodd" fill="rgb(228,162,39)"/><path d=" M 350 219 L 436.603 269 L 436.603 369 L 350 419 L 263.397 369 L 263.397 269 L 350 219 Z " fill-rule="evenodd" fill="rgb(22,115,182)"/><path d=" M 334.292 312.694 L 334.292 312.694 L 334.292 312.694 Q 331.729 312.694 330.322 314.62 L 330.322 314.62 L 330.322 314.62 Q 328.916 316.546 328.916 319.989 L 328.916 319.989 L 328.916 319.989 Q 328.916 327.152 334.292 327.152 L 334.292 327.152 L 334.292 327.152 Q 336.548 327.152 339.756 326.024 L 339.756 326.024 L 339.756 329.833 L 339.756 329.833 Q 337.119 330.931 333.867 330.931 L 333.867 330.931 L 333.867 330.931 Q 329.194 330.931 326.719 328.097 L 326.719 328.097 L 326.719 328.097 Q 324.243 325.262 324.243 319.959 L 324.243 319.959 L 324.243 319.959 Q 324.243 316.62 325.459 314.107 L 325.459 314.107 L 325.459 314.107 Q 326.675 311.595 328.953 310.255 L 328.953 310.255 L 328.953 310.255 Q 331.23 308.915 334.292 308.915 L 334.292 308.915 L 334.292 308.915 Q 337.412 308.915 340.562 310.423 L 340.562 310.423 L 339.097 314.115 L 339.097 314.115 Q 337.896 313.543 336.68 313.119 L 336.68 313.119 L 336.68 313.119 Q 335.464 312.694 334.292 312.694 Z  M 356.953 324.691 L 356.953 324.691 L 356.953 324.691 Q 356.953 327.591 354.866 329.261 L 354.866 329.261 L 354.866 329.261 Q 352.778 330.931 349.058 330.931 L 349.058 330.931 L 349.058 330.931 Q 345.63 330.931 342.993 329.642 L 342.993 329.642 L 342.993 325.423 L 342.993 325.423 Q 345.161 326.39 346.663 326.786 L 346.663 326.786 L 346.663 326.786 Q 348.164 327.181 349.409 327.181 L 349.409 327.181 L 349.409 327.181 Q 350.903 327.181 351.702 326.61 L 351.702 326.61 L 351.702 326.61 Q 352.5 326.039 352.5 324.911 L 352.5 324.911 L 352.5 324.911 Q 352.5 324.281 352.148 323.79 L 352.148 323.79 L 352.148 323.79 Q 351.797 323.299 351.116 322.845 L 351.116 322.845 L 351.116 322.845 Q 350.435 322.391 348.34 321.395 L 348.34 321.395 L 348.34 321.395 Q 346.377 320.472 345.396 319.623 L 345.396 319.623 L 345.396 319.623 Q 344.414 318.773 343.828 317.645 L 343.828 317.645 L 343.828 317.645 Q 343.242 316.517 343.242 315.008 L 343.242 315.008 L 343.242 315.008 Q 343.242 312.167 345.168 310.541 L 345.168 310.541 L 345.168 310.541 Q 347.095 308.915 350.493 308.915 L 350.493 308.915 L 350.493 308.915 Q 352.163 308.915 353.679 309.31 L 353.679 309.31 L 353.679 309.31 Q 355.195 309.706 356.851 310.423 L 356.851 310.423 L 355.386 313.954 L 355.386 313.954 Q 353.672 313.25 352.551 312.972 L 352.551 312.972 L 352.551 312.972 Q 351.431 312.694 350.347 312.694 L 350.347 312.694 L 350.347 312.694 Q 349.058 312.694 348.369 313.294 L 348.369 313.294 L 348.369 313.294 Q 347.681 313.895 347.681 314.862 L 347.681 314.862 L 347.681 314.862 Q 347.681 315.462 347.959 315.909 L 347.959 315.909 L 347.959 315.909 Q 348.237 316.356 348.845 316.773 L 348.845 316.773 L 348.845 316.773 Q 349.453 317.191 351.724 318.275 L 351.724 318.275 L 351.724 318.275 Q 354.727 319.71 355.84 321.153 L 355.84 321.153 L 355.84 321.153 Q 356.953 322.596 356.953 324.691 Z  M 373.477 324.691 L 373.477 324.691 L 373.477 324.691 Q 373.477 327.591 371.389 329.261 L 371.389 329.261 L 371.389 329.261 Q 369.302 330.931 365.581 330.931 L 365.581 330.931 L 365.581 330.931 Q 362.153 330.931 359.517 329.642 L 359.517 329.642 L 359.517 325.423 L 359.517 325.423 Q 361.685 326.39 363.186 326.786 L 363.186 326.786 L 363.186 326.786 Q 364.688 327.181 365.933 327.181 L 365.933 327.181 L 365.933 327.181 Q 367.427 327.181 368.225 326.61 L 368.225 326.61 L 368.225 326.61 Q 369.023 326.039 369.023 324.911 L 369.023 324.911 L 369.023 324.911 Q 369.023 324.281 368.672 323.79 L 368.672 323.79 L 368.672 323.79 Q 368.32 323.299 367.639 322.845 L 367.639 322.845 L 367.639 322.845 Q 366.958 322.391 364.863 321.395 L 364.863 321.395 L 364.863 321.395 Q 362.9 320.472 361.919 319.623 L 361.919 319.623 L 361.919 319.623 Q 360.938 318.773 360.352 317.645 L 360.352 317.645 L 360.352 317.645 Q 359.766 316.517 359.766 315.008 L 359.766 315.008 L 359.766 315.008 Q 359.766 312.167 361.692 310.541 L 361.692 310.541 L 361.692 310.541 Q 363.618 308.915 367.017 308.915 L 367.017 308.915 L 367.017 308.915 Q 368.687 308.915 370.203 309.31 L 370.203 309.31 L 370.203 309.31 Q 371.719 309.706 373.374 310.423 L 373.374 310.423 L 371.909 313.954 L 371.909 313.954 Q 370.195 313.25 369.075 312.972 L 369.075 312.972 L 369.075 312.972 Q 367.954 312.694 366.87 312.694 L 366.87 312.694 L 366.87 312.694 Q 365.581 312.694 364.893 313.294 L 364.893 313.294 L 364.893 313.294 Q 364.204 313.895 364.204 314.862 L 364.204 314.862 L 364.204 314.862 Q 364.204 315.462 364.482 315.909 L 364.482 315.909 L 364.482 315.909 Q 364.761 316.356 365.369 316.773 L 365.369 316.773 L 365.369 316.773 Q 365.977 317.191 368.247 318.275 L 368.247 318.275 L 368.247 318.275 Q 371.25 319.71 372.363 321.153 L 372.363 321.153 L 372.363 321.153 Q 373.477 322.596 373.477 324.691 Z " fill-rule="evenodd" fill="rgb(255,255,255)"/><path d=" M 174.454 167.937 L 174.454 167.937 L 174.454 167.937 Q 172.916 167.937 171.773 167.615 L 171.773 167.615 L 171.773 163.835 L 171.773 163.835 Q 172.945 164.128 173.912 164.128 L 173.912 164.128 L 173.912 164.128 Q 175.406 164.128 176.051 163.198 L 176.051 163.198 L 176.051 163.198 Q 176.695 162.268 176.695 160.291 L 176.695 160.291 L 176.695 140.222 L 181.236 140.222 L 181.236 160.261 L 181.236 160.261 Q 181.236 164.011 179.522 165.974 L 179.522 165.974 L 179.522 165.974 Q 177.809 167.937 174.454 167.937 Z  M 199.796 161.638 L 196.676 161.638 L 195.812 159.412 L 195.694 159.412 L 195.694 159.412 Q 194.566 160.833 193.373 161.382 L 193.373 161.382 L 193.373 161.382 Q 192.179 161.931 190.26 161.931 L 190.26 161.931 L 190.26 161.931 Q 187.901 161.931 186.546 160.583 L 186.546 160.583 L 186.546 160.583 Q 185.191 159.236 185.191 156.746 L 185.191 156.746 L 185.191 156.746 Q 185.191 154.138 187.015 152.9 L 187.015 152.9 L 187.015 152.9 Q 188.839 151.663 192.516 151.531 L 192.516 151.531 L 195.357 151.443 L 195.357 150.725 L 195.357 150.725 Q 195.357 148.235 192.809 148.235 L 192.809 148.235 L 192.809 148.235 Q 190.846 148.235 188.194 149.421 L 188.194 149.421 L 186.715 146.404 L 186.715 146.404 Q 189.542 144.924 192.984 144.924 L 192.984 144.924 L 192.984 144.924 Q 196.28 144.924 198.038 146.36 L 198.038 146.36 L 198.038 146.36 Q 199.796 147.795 199.796 150.725 L 199.796 150.725 L 199.796 161.638 L 199.796 161.638 Z  M 195.357 155.398 L 195.357 154.05 L 193.629 154.109 L 193.629 154.109 Q 191.681 154.167 190.729 154.812 L 190.729 154.812 L 190.729 154.812 Q 189.776 155.457 189.776 156.775 L 189.776 156.775 L 189.776 156.775 Q 189.776 158.665 191.944 158.665 L 191.944 158.665 L 191.944 158.665 Q 193.497 158.665 194.427 157.771 L 194.427 157.771 L 194.427 157.771 Q 195.357 156.877 195.357 155.398 L 195.357 155.398 L 195.357 155.398 Z  M 212.877 161.638 L 208.292 161.638 L 202.052 145.261 L 206.725 145.261 L 209.889 154.592 L 209.889 154.592 Q 210.416 156.365 210.548 157.947 L 210.548 157.947 L 210.636 157.947 L 210.636 157.947 Q 210.709 156.541 211.295 154.592 L 211.295 154.592 L 214.444 145.261 L 219.117 145.261 L 212.877 161.638 L 212.877 161.638 Z  M 234.981 161.638 L 231.861 161.638 L 230.997 159.412 L 230.88 159.412 L 230.88 159.412 Q 229.752 160.833 228.558 161.382 L 228.558 161.382 L 228.558 161.382 Q 227.364 161.931 225.445 161.931 L 225.445 161.931 L 225.445 161.931 Q 223.087 161.931 221.732 160.583 L 221.732 160.583 L 221.732 160.583 Q 220.377 159.236 220.377 156.746 L 220.377 156.746 L 220.377 156.746 Q 220.377 154.138 222.201 152.9 L 222.201 152.9 L 222.201 152.9 Q 224.024 151.663 227.701 151.531 L 227.701 151.531 L 230.543 151.443 L 230.543 150.725 L 230.543 150.725 Q 230.543 148.235 227.994 148.235 L 227.994 148.235 L 227.994 148.235 Q 226.031 148.235 223.38 149.421 L 223.38 149.421 L 221.9 146.404 L 221.9 146.404 Q 224.728 144.924 228.17 144.924 L 228.17 144.924 L 228.17 144.924 Q 231.466 144.924 233.224 146.36 L 233.224 146.36 L 233.224 146.36 Q 234.981 147.795 234.981 150.725 L 234.981 150.725 L 234.981 161.638 L 234.981 161.638 Z  M 230.543 155.398 L 230.543 154.05 L 228.814 154.109 L 228.814 154.109 Q 226.866 154.167 225.914 154.812 L 225.914 154.812 L 225.914 154.812 Q 224.962 155.457 224.962 156.775 L 224.962 156.775 L 224.962 156.775 Q 224.962 158.665 227.13 158.665 L 227.13 158.665 L 227.13 158.665 Q 228.683 158.665 229.613 157.771 L 229.613 157.771 L 229.613 157.771 Q 230.543 156.877 230.543 155.398 L 230.543 155.398 L 230.543 155.398 Z  M 252.574 155.691 L 252.574 155.691 L 252.574 155.691 Q 252.574 158.591 250.487 160.261 L 250.487 160.261 L 250.487 160.261 Q 248.399 161.931 244.679 161.931 L 244.679 161.931 L 244.679 161.931 Q 241.251 161.931 238.614 160.642 L 238.614 160.642 L 238.614 156.423 L 238.614 156.423 Q 240.782 157.39 242.284 157.786 L 242.284 157.786 L 242.284 157.786 Q 243.785 158.181 245.03 158.181 L 245.03 158.181 L 245.03 158.181 Q 246.524 158.181 247.323 157.61 L 247.323 157.61 L 247.323 157.61 Q 248.121 157.039 248.121 155.911 L 248.121 155.911 L 248.121 155.911 Q 248.121 155.281 247.77 154.79 L 247.77 154.79 L 247.77 154.79 Q 247.418 154.299 246.737 153.845 L 246.737 153.845 L 246.737 153.845 Q 246.056 153.391 243.961 152.395 L 243.961 152.395 L 243.961 152.395 Q 241.998 151.472 241.017 150.623 L 241.017 150.623 L 241.017 150.623 Q 240.035 149.773 239.449 148.645 L 239.449 148.645 L 239.449 148.645 Q 238.863 147.517 238.863 146.008 L 238.863 146.008 L 238.863 146.008 Q 238.863 143.167 240.79 141.541 L 240.79 141.541 L 240.79 141.541 Q 242.716 139.915 246.114 139.915 L 246.114 139.915 L 246.114 139.915 Q 247.784 139.915 249.3 140.31 L 249.3 140.31 L 249.3 140.31 Q 250.816 140.706 252.472 141.423 L 252.472 141.423 L 251.007 144.954 L 251.007 144.954 Q 249.293 144.25 248.172 143.972 L 248.172 143.972 L 248.172 143.972 Q 247.052 143.694 245.968 143.694 L 245.968 143.694 L 245.968 143.694 Q 244.679 143.694 243.99 144.294 L 243.99 144.294 L 243.99 144.294 Q 243.302 144.895 243.302 145.862 L 243.302 145.862 L 243.302 145.862 Q 243.302 146.462 243.58 146.909 L 243.58 146.909 L 243.58 146.909 Q 243.858 147.356 244.466 147.773 L 244.466 147.773 L 244.466 147.773 Q 245.074 148.191 247.345 149.275 L 247.345 149.275 L 247.345 149.275 Q 250.348 150.71 251.461 152.153 L 251.461 152.153 L 251.461 152.153 Q 252.574 153.596 252.574 155.691 Z  M 262.755 161.931 L 262.755 161.931 L 262.755 161.931 Q 255.108 161.931 255.108 153.538 L 255.108 153.538 L 255.108 153.538 Q 255.108 149.363 257.188 147.158 L 257.188 147.158 L 257.188 147.158 Q 259.269 144.954 263.15 144.954 L 263.15 144.954 L 263.15 144.954 Q 265.992 144.954 268.248 146.067 L 268.248 146.067 L 266.93 149.524 L 266.93 149.524 Q 265.875 149.099 264.967 148.828 L 264.967 148.828 L 264.967 148.828 Q 264.059 148.557 263.15 148.557 L 263.15 148.557 L 263.15 148.557 Q 259.664 148.557 259.664 153.508 L 259.664 153.508 L 259.664 153.508 Q 259.664 158.313 263.15 158.313 L 263.15 158.313 L 263.15 158.313 Q 264.439 158.313 265.538 157.969 L 265.538 157.969 L 265.538 157.969 Q 266.637 157.625 267.735 156.892 L 267.735 156.892 L 267.735 160.715 L 267.735 160.715 Q 266.651 161.404 265.545 161.667 L 265.545 161.667 L 265.545 161.667 Q 264.439 161.931 262.755 161.931 Z  M 280.67 144.954 L 280.67 144.954 L 280.67 144.954 Q 281.578 144.954 282.179 145.085 L 282.179 145.085 L 281.842 149.275 L 281.842 149.275 Q 281.3 149.128 280.523 149.128 L 280.523 149.128 L 280.523 149.128 Q 278.385 149.128 277.191 150.227 L 277.191 150.227 L 277.191 150.227 Q 275.997 151.326 275.997 153.303 L 275.997 153.303 L 275.997 161.638 L 271.529 161.638 L 271.529 145.261 L 274.913 145.261 L 275.572 148.015 L 275.792 148.015 L 275.792 148.015 Q 276.554 146.638 277.85 145.796 L 277.85 145.796 L 277.85 145.796 Q 279.146 144.954 280.67 144.954 Z  M 284.962 141.028 L 284.962 141.028 L 284.962 141.028 Q 284.962 138.845 287.394 138.845 L 287.394 138.845 L 287.394 138.845 Q 289.825 138.845 289.825 141.028 L 289.825 141.028 L 289.825 141.028 Q 289.825 142.068 289.217 142.646 L 289.217 142.646 L 289.217 142.646 Q 288.609 143.225 287.394 143.225 L 287.394 143.225 L 287.394 143.225 Q 284.962 143.225 284.962 141.028 Z  M 289.62 145.261 L 289.62 161.638 L 285.152 161.638 L 285.152 145.261 L 289.62 145.261 L 289.62 145.261 Z  M 303.302 161.931 L 303.302 161.931 L 303.302 161.931 Q 300.416 161.931 298.775 159.836 L 298.775 159.836 L 298.541 159.836 L 298.541 159.836 Q 298.775 161.887 298.775 162.209 L 298.775 162.209 L 298.775 168.845 L 294.308 168.845 L 294.308 145.261 L 297.94 145.261 L 298.57 147.385 L 298.775 147.385 L 298.775 147.385 Q 300.343 144.954 303.419 144.954 L 303.419 144.954 L 303.419 144.954 Q 306.319 144.954 307.96 147.195 L 307.96 147.195 L 307.96 147.195 Q 309.601 149.436 309.601 153.42 L 309.601 153.42 L 309.601 153.42 Q 309.601 156.042 308.832 157.976 L 308.832 157.976 L 308.832 157.976 Q 308.063 159.91 306.642 160.92 L 306.642 160.92 L 306.642 160.92 Q 305.221 161.931 303.302 161.931 Z  M 301.983 148.528 L 301.983 148.528 L 301.983 148.528 Q 300.328 148.528 299.566 149.546 L 299.566 149.546 L 299.566 149.546 Q 298.805 150.564 298.775 152.908 L 298.775 152.908 L 298.775 153.391 L 298.775 153.391 Q 298.775 156.028 299.559 157.17 L 299.559 157.17 L 299.559 157.17 Q 300.343 158.313 302.042 158.313 L 302.042 158.313 L 302.042 158.313 Q 305.045 158.313 305.045 153.362 L 305.045 153.362 L 305.045 153.362 Q 305.045 150.945 304.305 149.736 L 304.305 149.736 L 304.305 149.736 Q 303.565 148.528 301.983 148.528 Z  M 320.191 158.372 L 320.191 158.372 L 320.191 158.372 Q 321.363 158.372 323.004 157.859 L 323.004 157.859 L 323.004 161.184 L 323.004 161.184 Q 321.334 161.931 318.902 161.931 L 318.902 161.931 L 318.902 161.931 Q 316.222 161.931 314.999 160.576 L 314.999 160.576 L 314.999 160.576 Q 313.775 159.221 313.775 156.511 L 313.775 156.511 L 313.775 148.616 L 311.637 148.616 L 311.637 146.726 L 314.098 145.232 L 315.387 141.775 L 318.243 141.775 L 318.243 145.261 L 322.828 145.261 L 322.828 148.616 L 318.243 148.616 L 318.243 156.511 L 318.243 156.511 Q 318.243 157.463 318.778 157.917 L 318.778 157.917 L 318.778 157.917 Q 319.313 158.372 320.191 158.372 Z " fill-rule="evenodd" fill="rgb(255,255,255)"/></g></g></g></svg>