<?xml version="1.0" encoding="UTF-8" standalone="no"?>
<svg width="9997px" height="10000px" viewBox="0 0 9997 10000" version="1.1" xmlns="http://www.w3.org/2000/svg" xmlns:xlink="http://www.w3.org/1999/xlink" xmlns:sketch="http://www.bohemiancoding.com/sketch/ns">
    <!-- Generator: Sketch 3.3.2 (12043) - http://www.bohemiancoding.com/sketch -->
    <title>Logo</title>
    <desc>Created with Sketch.</desc>
    <defs></defs>
    <g id="Page-1" stroke="none" stroke-width="1" fill="none" fill-rule="evenodd" sketch:type="MSPage">
        <g id="Artboard-1" sketch:type="MSArtboardGroup">
            <g id="Logo" sketch:type="MSLayerGroup" transform="translate(-1.000000, 0.000000)">
                <path d="M3124.64588,837.605881 C3124.64588,-1047.00735 3963.74834,837.605881 4998.83367,837.605881 C6033.91901,837.605881 6873.02146,-1047.00735 6873.02146,837.605881 C6873.02146,2722.21911 6033.91901,4250 4998.83367,4250 C3963.74834,4250 3124.64588,2722.21911 3124.64588,837.605881 L3124.64588,837.605881 Z" id="Oval-2-Copy-3" fill="#F16272" sketch:type="MSShapeGroup"></path>
                <path d="M3124.64588,6587.60588 C3124.64588,4702.99265 3963.74834,6587.60588 4998.83367,6587.60588 C6033.91901,6587.60588 6873.02146,4702.99265 6873.02146,6587.60588 C6873.02146,8472.21911 6033.91901,10000 4998.83367,10000 C3963.74834,10000 3124.64588,8472.21911 3124.64588,6587.60588 L3124.64588,6587.60588 Z" id="Oval-2-Copy-4" fill="#F16272" sketch:type="MSShapeGroup" transform="translate(4998.833672, 7875.000000) scale(1, -1) translate(-4998.833672, -7875.000000) "></path>
                <path d="M5998.40049,3712.60588 C5998.40049,1827.99265 6837.50295,3712.60588 7872.58828,3712.60588 C8907.67362,3712.60588 9746.77607,1827.99265 9746.77607,3712.60588 C9746.77607,5597.21911 8907.67362,7125 7872.58828,7125 C6837.50295,7125 5998.40049,5597.21911 5998.40049,3712.60588 L5998.40049,3712.60588 Z" id="Oval-2-Copy-6" fill="#F16272" sketch:type="MSShapeGroup" transform="translate(7872.588283, 5000.000000) scale(-1, -1) rotate(270.000000) translate(-7872.588283, -5000.000000) "></path>
                <path d="M250.891272,3712.60588 C250.891272,1827.99265 1089.99373,3712.60588 2125.07906,3712.60588 C3160.1644,3712.60588 3999.26685,1827.99265 3999.26685,3712.60588 C3999.26685,5597.21911 3160.1644,7125 2125.07906,7125 C1089.99373,7125 250.891272,5597.21911 250.891272,3712.60588 L250.891272,3712.60588 Z" id="Oval-2-Copy-5" fill="#F16272" sketch:type="MSShapeGroup" transform="translate(2125.079062, 5000.000000) rotate(270.000000) translate(-2125.079062, -5000.000000) "></path>
                <ellipse id="Oval-13-Copy" fill="#FFFFFF" sketch:type="MSShapeGroup" cx="4998.83367" cy="3125" rx="499.783411" ry="500"></ellipse>
                <ellipse id="Oval-13-Copy-3" fill="#FFFFFF" sketch:type="MSShapeGroup" cx="6873.02146" cy="5000" rx="499.783411" ry="500"></ellipse>
                <ellipse id="Oval-13-Copy-4" fill="#FFFFFF" sketch:type="MSShapeGroup" cx="3124.64588" cy="5000" rx="499.783411" ry="500"></ellipse>
                <ellipse id="Oval-13-Copy-2" fill="#FFFFFF" sketch:type="MSShapeGroup" cx="4998.83367" cy="6875" rx="499.783411" ry="500"></ellipse>
            </g>
        </g>
    </g>
</svg>