<?xml version="1.0" encoding="UTF-8" standalone="no"?>
<svg width="1280px" height="720px" viewBox="0 0 1280 720" version="1.1" xmlns="http://www.w3.org/2000/svg" xmlns:xlink="http://www.w3.org/1999/xlink" xmlns:sketch="http://www.bohemiancoding.com/sketch/ns">
    <!-- Generator: Sketch 3.3.2 (12043) - http://www.bohemiancoding.com/sketch -->
    <title>main-screen</title>
    <desc>Created with Sketch.</desc>
    <defs></defs>
    <g id="Page-4" stroke="none" stroke-width="1" fill="none" fill-rule="evenodd" sketch:type="MSPage">
        <g id="main-screen" sketch:type="MSArtboardGroup">
            <rect id="Rectangle-2" fill="#F7F6F6" sketch:type="MSShapeGroup" x="0" y="0" width="1280" height="720"></rect>
            <g id="Logo" sketch:type="MSLayerGroup" transform="translate(440.000000, 160.000000)">
                <path d="M124.985835,33.5042352 C124.985835,-41.880294 158.549934,33.5042352 199.953347,33.5042352 C241.35676,33.5042352 274.920858,-41.880294 274.920858,33.5042352 C274.920858,108.888765 241.35676,170 199.953347,170 C158.549934,170 124.985835,108.888765 124.985835,33.5042352 L124.985835,33.5042352 Z" id="Oval-2-Copy-3" fill="#F16272" sketch:type="MSShapeGroup"></path>
                <path d="M124.985835,263.504235 C124.985835,188.119706 158.549934,263.504235 199.953347,263.504235 C241.35676,263.504235 274.920858,188.119706 274.920858,263.504235 C274.920858,338.888765 241.35676,400 199.953347,400 C158.549934,400 124.985835,338.888765 124.985835,263.504235 L124.985835,263.504235 Z" id="Oval-2-Copy-4" fill="#F16272" sketch:type="MSShapeGroup" transform="translate(199.953347, 315.000000) scale(1, -1) translate(-199.953347, -315.000000) "></path>
                <path d="M239.93602,148.504235 C239.93602,73.119706 273.500118,148.504235 314.903531,148.504235 C356.306945,148.504235 389.871043,73.119706 389.871043,148.504235 C389.871043,223.888765 356.306945,285 314.903531,285 C273.500118,285 239.93602,223.888765 239.93602,148.504235 L239.93602,148.504235 Z" id="Oval-2-Copy-6" fill="#F16272" sketch:type="MSShapeGroup" transform="translate(314.903531, 200.000000) scale(-1, -1) rotate(270.000000) translate(-314.903531, -200.000000) "></path>
                <path d="M10.0356509,148.504235 C10.0356509,73.119706 43.5997491,148.504235 85.0031625,148.504235 C126.406576,148.504235 159.970674,73.119706 159.970674,148.504235 C159.970674,223.888765 126.406576,285 85.0031625,285 C43.5997491,285 10.0356509,223.888765 10.0356509,148.504235 L10.0356509,148.504235 Z" id="Oval-2-Copy-5" fill="#F16272" sketch:type="MSShapeGroup" transform="translate(85.003162, 200.000000) rotate(270.000000) translate(-85.003162, -200.000000) "></path>
                <ellipse id="Oval-13-Copy" fill="#FFFFFF" sketch:type="MSShapeGroup" cx="199.953347" cy="125" rx="19.9913364" ry="20"></ellipse>
                <ellipse id="Oval-13-Copy-3" fill="#FFFFFF" sketch:type="MSShapeGroup" cx="274.920858" cy="200" rx="19.9913364" ry="20"></ellipse>
                <ellipse id="Oval-13-Copy-4" fill="#FFFFFF" sketch:type="MSShapeGroup" cx="124.985835" cy="200" rx="19.9913364" ry="20"></ellipse>
                <ellipse id="Oval-13-Copy-2" fill="#FFFFFF" sketch:type="MSShapeGroup" cx="199.953347" cy="275" rx="19.9913364" ry="20"></ellipse>
            </g>
        </g>
    </g>
</svg>