<?xml version="1.0" standalone="no"?><!-- Generator: Gravit.io --><svg xmlns="http://www.w3.org/2000/svg" xmlns:xlink="http://www.w3.org/1999/xlink" style="isolation:isolate" viewBox="0 0 500 500" width="500" height="500"><g><g><g><path d=" M 175.014 83.47 C 175.014 8.066 208.586 83.47 250 83.47 C 291.414 83.47 324.986 8.066 324.986 83.47 C 324.986 158.873 291.414 220 250 220 C 208.586 220 175.014 158.873 175.014 83.47 L 175.014 83.47 Z " fill-rule="evenodd" fill="rgb(255,255,255)"/><path d=" M 175.014 416.537 C 175.014 491.941 208.586 416.537 250 416.537 C 291.414 416.537 324.986 491.941 324.986 416.537 C 324.986 341.134 291.414 280.007 250 280.007 C 208.586 280.007 175.014 341.134 175.014 416.537 L 175.014 416.537 Z " fill-rule="evenodd" fill="rgb(255,255,255)"/><path d=" M 416.487 175.014 C 491.891 175.014 416.487 208.586 416.487 250 C 416.487 291.414 491.891 324.986 416.487 324.986 C 341.084 324.986 279.958 291.414 279.958 250 C 279.958 208.586 341.084 175.014 416.487 175.014 L 416.487 175.014 Z " fill-rule="evenodd" fill="rgb(255,255,255)"/><path d=" M 83.513 324.986 C 8.109 324.986 83.513 291.414 83.513 250 C 83.513 208.586 8.109 175.014 83.513 175.014 C 158.916 175.014 220.042 208.586 220.042 250 C 220.042 291.414 158.916 324.986 83.513 324.986 L 83.513 324.986 Z " fill-rule="evenodd" fill="rgb(255,255,255)"/><ellipse vector-effect="non-scaling-stroke" cx="0" cy="0" rx="1" ry="1" transform="matrix(19.996,0,0,20.005,250,174.981)" fill="rgb(241,98,114)"/><ellipse vector-effect="non-scaling-stroke" cx="0" cy="0" rx="1" ry="1" transform="matrix(19.996,0,0,20.005,324.986,250)" fill="rgb(241,98,114)"/><ellipse vector-effect="non-scaling-stroke" cx="0" cy="0" rx="1" ry="1" transform="matrix(19.996,0,0,20.005,175.014,250)" fill="rgb(241,98,114)"/><ellipse vector-effect="non-scaling-stroke" cx="0" cy="0" rx="1" ry="1" transform="matrix(19.996,0,0,20.005,250,325.019)" fill="rgb(241,98,114)"/></g></g></g></svg>