<?xml version="1.0" encoding="UTF-8" standalone="no"?>
<svg
   xmlns:sketch="http://www.bohemiancoding.com/sketch/ns"
   xmlns:dc="http://purl.org/dc/elements/1.1/"
   xmlns:cc="http://creativecommons.org/ns#"
   xmlns:rdf="http://www.w3.org/1999/02/22-rdf-syntax-ns#"
   xmlns:svg="http://www.w3.org/2000/svg"
   xmlns="http://www.w3.org/2000/svg"
   xmlns:sodipodi="http://sodipodi.sourceforge.net/DTD/sodipodi-0.dtd"
   xmlns:inkscape="http://www.inkscape.org/namespaces/inkscape"
   width="500px"
   height="500px"
   viewBox="0 0 500 500"
   version="1.1"
   id="svg2"
   inkscape:version="0.91 r13725"
   sodipodi:docname="custom.svg">
  <metadata
     id="metadata28">
    <rdf:RDF>
      <cc:Work
         rdf:about="">
        <dc:format>image/svg+xml</dc:format>
        <dc:type
           rdf:resource="http://purl.org/dc/dcmitype/StillImage" />
      </cc:Work>
    </rdf:RDF>
  </metadata>
  <sodipodi:namedview
     pagecolor="#ffffff"
     bordercolor="#666666"
     borderopacity="1"
     objecttolerance="10"
     gridtolerance="10"
     guidetolerance="10"
     inkscape:pageopacity="0"
     inkscape:pageshadow="2"
     inkscape:window-width="1280"
     inkscape:window-height="740"
     id="namedview26"
     showgrid="false"
     inkscape:zoom="1.3350176"
     inkscape:cx="249.5778"
     inkscape:cy="184.83037"
     inkscape:window-x="0"
     inkscape:window-y="23"
     inkscape:window-maximized="1"
     inkscape:current-layer="Artboard-13" />
  <!-- Generator: Sketch 3.3.2 (12043) - http://www.bohemiancoding.com/sketch -->
  <title
     id="title4">Group</title>
  <desc
     id="desc6">Created with Sketch.</desc>
  <defs
     id="defs8" />
  <g
     id="Page-1"
     stroke="none"
     stroke-width="1"
     fill="none"
     fill-rule="evenodd"
     sketch:type="MSPage">
    <g
       id="Artboard-13"
       sketch:type="MSArtboardGroup">
      <path
         style="fill:#80cbc4"
         d="M 250 0 C 111.92881 0 0 111.92881 0 250 C 0 388.07119 111.92881 500 250 500 C 388.07119 500 500 388.07119 500 250 C 500 111.92881 388.07119 0 250 0 z M 141.5 74 A 12.5 12.5 0 0 1 154 86.5 A 12.5 12.5 0 0 1 141.5 99 A 12.5 12.5 0 0 1 129 86.5 A 12.5 12.5 0 0 1 141.5 74 z M 356.5 74 A 12.5 12.5 0 0 1 369 86.5 A 12.5 12.5 0 0 1 356.5 99 A 12.5 12.5 0 0 1 344 86.5 A 12.5 12.5 0 0 1 356.5 74 z M 147 129 A 50 50 0 0 1 197 179 A 50 50 0 0 1 164 225.97266 L 164 366 C 164 370.432 160.432 374 156 374 L 137 374 C 132.568 374 129 370.432 129 366 L 129 225.58984 A 50 50 0 0 1 97 179 A 50 50 0 0 1 147 129 z M 241 129 L 260 129 C 264.432 129 268 132.568 268 137 L 268 277.41016 A 50 50 0 0 1 300 324 A 50 50 0 0 1 250 374 A 50 50 0 0 1 200 324 A 50 50 0 0 1 233 277.02734 L 233 137 C 233 132.568 236.568 129 241 129 z M 356 129 A 50 50 0 0 1 406 179 A 50 50 0 0 1 374 225.64062 L 374 366 C 374 370.432 370.432 374 366 374 L 347 374 C 342.568 374 339 370.432 339 366 L 339 225.95508 A 50 50 0 0 1 306 179 A 50 50 0 0 1 356 129 z M 147 154 A 25 25 0 0 0 122 179 A 25 25 0 0 0 147 204 A 25 25 0 0 0 172 179 A 25 25 0 0 0 147 154 z M 356 154 A 25 25 0 0 0 331 179 A 25 25 0 0 0 356 204 A 25 25 0 0 0 381 179 A 25 25 0 0 0 356 154 z M 250 299 A 25 25 0 0 0 225 324 A 25 25 0 0 0 250 349 A 25 25 0 0 0 275 324 A 25 25 0 0 0 250 299 z M 250.5 405 A 12.5 12.5 0 0 1 263 417.5 A 12.5 12.5 0 0 1 250.5 430 A 12.5 12.5 0 0 1 238 417.5 A 12.5 12.5 0 0 1 250.5 405 z "
         id="Oval-21" />
    </g>
  </g>
</svg>
