<?xml version="1.0" encoding="UTF-8" standalone="no"?>
<svg
   xmlns:sketch="http://www.bohemiancoding.com/sketch/ns"
   xmlns:dc="http://purl.org/dc/elements/1.1/"
   xmlns:cc="http://creativecommons.org/ns#"
   xmlns:rdf="http://www.w3.org/1999/02/22-rdf-syntax-ns#"
   xmlns:svg="http://www.w3.org/2000/svg"
   xmlns="http://www.w3.org/2000/svg"
   xmlns:sodipodi="http://sodipodi.sourceforge.net/DTD/sodipodi-0.dtd"
   xmlns:inkscape="http://www.inkscape.org/namespaces/inkscape"
   width="500px"
   height="500px"
   viewBox="0 0 500 500"
   version="1.1"
   id="svg2"
   inkscape:version="0.91 r13725"
   sodipodi:docname="embed.svg">
  <metadata
     id="metadata22">
    <rdf:RDF>
      <cc:Work
         rdf:about="">
        <dc:format>image/svg+xml</dc:format>
        <dc:type
           rdf:resource="http://purl.org/dc/dcmitype/StillImage" />
      </cc:Work>
    </rdf:RDF>
  </metadata>
  <sodipodi:namedview
     pagecolor="#ffffff"
     bordercolor="#666666"
     borderopacity="1"
     objecttolerance="10"
     gridtolerance="10"
     guidetolerance="10"
     inkscape:pageopacity="0"
     inkscape:pageshadow="2"
     inkscape:window-width="1280"
     inkscape:window-height="741"
     id="namedview20"
     showgrid="false"
     inkscape:zoom="0.6675088"
     inkscape:cx="345.64704"
     inkscape:cy="244.68291"
     inkscape:window-x="0"
     inkscape:window-y="22"
     inkscape:window-maximized="1"
     inkscape:current-layer="Open-Source" />
  <!-- Generator: Sketch 3.3.2 (12043) - http://www.bohemiancoding.com/sketch -->
  <title
     id="title4">Group</title>
  <desc
     id="desc6">Created with Sketch.</desc>
  <defs
     id="defs8" />
  <g
     style="fill:none;fill-rule:evenodd;stroke:none;stroke-width:1"
     id="Group"
     sketch:type="MSLayerGroup">
    <path
       d="M 250,500 C 388.07119,500 500,388.07119 500,250 500,111.92881 388.07119,0 250,0 111.92881,0 0,111.92881 0,250 0,388.07119 111.92881,500 250,500 Z"
       id="Oval-20"
       sketch:type="MSShapeGroup"
       inkscape:connector-curvature="0"
       style="fill:#ff872e" />
    <g
       transform="scale(0.94245856,1.0610546)"
       style="font-weight:normal;font-size:67.85701752px;font-family:Lato;fill:#ffffff"
       id="Open-Source">
      <path
         d="m 73.819395,298.12616 q -7.289328,0 -11.596658,5.43387 -4.274197,5.43386 -4.274197,14.81059 0,9.34359 4.274197,14.77745 4.30733,5.43386 11.596658,5.43386 7.289328,0 11.530392,-5.43386 4.274197,-5.43386 4.274197,-14.77745 0,-9.37673 -4.274197,-14.81059 -4.241064,-5.43387 -11.530392,-5.43387 z m 0,-5.43386 q 10.403859,0 16.632921,6.99113 6.229062,6.95799 6.229062,18.68719 0,11.69605 -6.229062,18.68718 -6.229062,6.958 -16.632921,6.958 -10.436992,0 -16.699188,-6.958 -6.229062,-6.95799 -6.229062,-18.68718 0,-11.7292 6.229062,-18.68719 6.262196,-6.99113 16.699188,-6.99113 z"
         style=""
         id="path3343" />
      <path
         d="m 112.78417,337.48854 0,19.68118 -6.12966,0 0,-51.22409 6.12966,0 0,5.63266 q 1.92173,-3.31333 4.83746,-4.90373 2.94887,-1.62353 7.02426,-1.62353 6.7592,0 10.96713,5.36759 4.24106,5.3676 4.24106,14.11479 0,8.7472 -4.24106,14.11479 -4.20793,5.3676 -10.96713,5.3676 -4.07539,0 -7.02426,-1.5904 -2.91573,-1.62353 -4.83746,-4.93686 z m 20.74145,-12.95513 q 0,-6.72606 -2.7832,-10.53639 -2.75006,-3.84346 -7.58753,-3.84346 -4.83746,0 -7.62066,3.84346 -2.75006,3.81033 -2.75006,10.53639 0,6.72606 2.75006,10.56953 2.7832,3.81033 7.62066,3.81033 4.83747,0 7.58753,-3.81033 2.7832,-3.84347 2.7832,-10.56953 z"
         style=""
         id="path3345" />
      <path
         d="m 181.70145,322.97615 0,2.98199 -28.03078,0 q 0.3976,6.29533 3.7772,9.60866 3.41273,3.2802 9.47613,3.2802 3.51213,0 6.79233,-0.86146 3.31333,-0.86147 6.56039,-2.5844 l 0,5.76519 q -3.2802,1.3916 -6.72606,2.12053 -3.44587,0.72894 -6.99113,0.72894 -8.87973,0 -14.08166,-5.1688 -5.16879,-5.16879 -5.16879,-13.98226 0,-9.11166 4.90373,-14.44612 4.93686,-5.36759 13.28645,-5.36759 7.48813,0 11.8286,4.83746 4.37359,4.80433 4.37359,13.08766 z m -6.09653,-1.7892 q -0.0663,-5.00313 -2.81633,-7.98513 -2.71693,-2.982 -7.22306,-2.982 -5.10253,0 -8.18393,2.8826 -3.04826,2.8826 -3.51213,8.11766 l 21.73545,-0.0331 z"
         style=""
         id="path3347" />
      <path
         d="m 222.55483,320.65681 0,22.39812 -6.09653,0 0,-22.19932 q 0,-5.26819 -2.05426,-7.88572 -2.05427,-2.61753 -6.1628,-2.61753 -4.93686,0 -7.78633,3.14766 -2.84946,3.14766 -2.84946,8.58153 l 0,20.97338 -6.12966,0 0,-37.1093 6.12966,0 0,5.76519 q 2.1868,-3.34646 5.13566,-5.00313 2.982,-1.65666 6.8586,-1.65666 6.39473,0 9.67492,3.97599 3.2802,3.94287 3.2802,11.62979 z"
         style=""
         id="path3349" />
      <path
         d="m 286.30331,295.21043 0,6.52726 q -3.81033,-1.82233 -7.18993,-2.71693 -3.3796,-0.8946 -6.52726,-0.8946 -5.467,0 -8.449,2.12054 -2.94886,2.12053 -2.94886,6.03026 0,3.2802 1.95486,4.96999 1.988,1.65667 7.48813,2.6838 l 4.04227,0.82834 q 7.48812,1.42473 11.03339,5.03626 3.5784,3.5784 3.5784,9.60866 0,7.18993 -4.83747,10.90086 -4.80433,3.71093 -14.11479,3.71093 -3.51213,0 -7.48813,-0.7952 -3.94286,-0.7952 -8.18392,-2.35247 l 0,-6.89173 q 4.07539,2.2862 7.98512,3.44587 3.90974,1.15966 7.68693,1.15966 5.73207,0 8.8466,-2.25306 3.11453,-2.25307 3.11453,-6.42786 0,-3.64467 -2.25307,-5.69893 -2.21993,-2.05427 -7.32246,-3.0814 l -4.0754,-0.7952 q -7.48812,-1.491 -10.83459,-4.6718 -3.34646,-3.18079 -3.34646,-8.84659 0,-6.56039 4.60553,-10.33759 4.63866,-3.7772 12.75632,-3.7772 3.479,0 7.09053,0.62953 3.61153,0.62954 7.38873,1.8886 z"
         style=""
         id="path3351" />
      <path
         d="m 313.83709,310.21982 q -4.90373,0 -7.7532,3.84347 -2.84946,3.81033 -2.84946,10.47012 0,6.6598 2.81633,10.50326 2.84947,3.81033 7.78633,3.81033 4.8706,0 7.72006,-3.84346 2.84946,-3.84347 2.84946,-10.47013 0,-6.59353 -2.84946,-10.43699 -2.84946,-3.8766 -7.72006,-3.8766 z m 0,-5.16879 q 7.95199,0 12.49126,5.16879 4.53926,5.1688 4.53926,14.31359 0,9.11166 -4.53926,14.31359 -4.53927,5.1688 -12.49126,5.1688 -7.98513,0 -12.52439,-5.1688 -4.50613,-5.20193 -4.50613,-14.31359 0,-9.14479 4.50613,-14.31359 4.53926,-5.16879 12.52439,-5.16879 z"
         style=""
         id="path3353" />
      <path
         d="m 340.31061,328.41001 0,-22.46438 6.09653,0 0,22.23245 q 0,5.26819 2.05426,7.91886 2.05427,2.61753 6.1628,2.61753 4.93686,0 7.78633,-3.14767 2.8826,-3.14766 2.8826,-8.58152 l 0,-21.03965 6.09652,0 0,37.1093 -6.09652,0 0,-5.69893 q -2.21994,3.3796 -5.1688,5.03627 -2.91573,1.62353 -6.79233,1.62353 -6.39473,0 -9.70806,-3.976 -3.31333,-3.976 -3.31333,-11.62979 z m 15.34072,-23.35898 0,0 z"
         style=""
         id="path3355" />
      <path
         d="m 405.51696,311.64455 q -1.02713,-0.5964 -2.25306,-0.86146 -1.1928,-0.2982 -2.65067,-0.2982 -5.16879,0 -7.95199,3.3796 -2.75007,3.34646 -2.75007,9.64179 l 0,19.54865 -6.12966,0 0,-37.1093 6.12966,0 0,5.76519 q 1.92174,-3.3796 5.00313,-5.00313 3.0814,-1.65666 7.48813,-1.65666 0.62954,0 1.3916,0.0994 0.76207,0.0663 1.6898,0.23193 l 0.0331,6.26219 z"
         style=""
         id="path3357" />
      <path
         d="m 437.22555,307.37036 0,5.69893 q -2.5844,-1.42474 -5.20193,-2.12054 -2.5844,-0.72893 -5.23507,-0.72893 -5.93086,0 -9.21106,3.7772 -3.28019,3.74406 -3.28019,10.53639 0,6.79233 3.28019,10.56953 3.2802,3.74406 9.21106,3.74406 2.65067,0 5.23507,-0.6958 2.61753,-0.72893 5.20193,-2.15366 l 0,5.63266 q -2.55127,1.1928 -5.30133,1.7892 -2.71693,0.5964 -5.79833,0.5964 -8.38273,0 -13.31959,-5.2682 -4.93687,-5.26819 -4.93687,-14.21419 0,-9.07853 4.97,-14.28045 5.00313,-5.20193 13.68406,-5.20193 2.81633,0 5.50013,0.5964 2.68379,0.56326 5.20193,1.72293 z"
         style=""
         id="path3359" />
      <path
         d="m 479.63617,322.97615 0,2.98199 -28.03078,0 q 0.3976,6.29533 3.7772,9.60866 3.41273,3.2802 9.47612,3.2802 3.51213,0 6.79233,-0.86146 3.31333,-0.86147 6.5604,-2.5844 l 0,5.76519 q -3.2802,1.3916 -6.72607,2.12053 -3.44586,0.72894 -6.99112,0.72894 -8.87973,0 -14.08166,-5.1688 -5.1688,-5.16879 -5.1688,-13.98226 0,-9.11166 4.90373,-14.44612 4.93687,-5.36759 13.28646,-5.36759 7.48813,0 11.82859,4.83746 4.3736,4.80433 4.3736,13.08766 z m -6.09653,-1.7892 q -0.0663,-5.00313 -2.81633,-7.98513 -2.71693,-2.982 -7.22306,-2.982 -5.10253,0 -8.18393,2.8826 -3.04827,2.8826 -3.51213,8.11766 l 21.73545,-0.0331 z"
         style=""
         id="path3361" />
    </g>
    <ellipse
       id="Oval-42"
       sketch:type="MSShapeGroup"
       cx="250"
       cy="188"
       style="fill:#ffffff"
       r="100" />
    <circle
       id="Oval-43-8"
       sketch:type="MSShapeGroup"
       cx="250"
       cy="185.22972"
       style="fill:#ffffff;fill-rule:evenodd;stroke:none;stroke-width:1"
       r="100" />
    <circle
       id="Oval-43"
       sketch:type="MSShapeGroup"
       cx="250"
       cy="188"
       r="25"
       style="fill:#ff872e;fill-opacity:1" />
    <polygon
       id="Triangle-3"
       sketch:type="MSShapeGroup"
       points="182,288 250.5,180 319,288 "
       style="fill:#ff872e;fill-opacity:1"
       transform="translate(-0.5,0)" />
  </g>
</svg>
