<?xml version="1.0" encoding="UTF-8" standalone="no"?>
<svg
   xmlns:sketch="http://www.bohemiancoding.com/sketch/ns"
   xmlns:dc="http://purl.org/dc/elements/1.1/"
   xmlns:cc="http://creativecommons.org/ns#"
   xmlns:rdf="http://www.w3.org/1999/02/22-rdf-syntax-ns#"
   xmlns:svg="http://www.w3.org/2000/svg"
   xmlns="http://www.w3.org/2000/svg"
   xmlns:sodipodi="http://sodipodi.sourceforge.net/DTD/sodipodi-0.dtd"
   xmlns:inkscape="http://www.inkscape.org/namespaces/inkscape"
   width="10000px"
   height="10000px"
   viewBox="0 0 10000 10000"
   version="1.1"
   id="svg2"
   inkscape:version="0.91 r13725"
   sodipodi:docname="logo-white.svg">
  <metadata
     id="metadata23">
    <rdf:RDF>
      <cc:Work
         rdf:about="">
        <dc:format>image/svg+xml</dc:format>
        <dc:type
           rdf:resource="http://purl.org/dc/dcmitype/StillImage" />
        <dc:title>Artboard 1</dc:title>
      </cc:Work>
    </rdf:RDF>
  </metadata>
  <sodipodi:namedview
     pagecolor="#ffffff"
     bordercolor="#666666"
     borderopacity="1"
     objecttolerance="10"
     gridtolerance="10"
     guidetolerance="10"
     inkscape:pageopacity="0"
     inkscape:pageshadow="2"
     inkscape:window-width="1280"
     inkscape:window-height="740"
     id="namedview21"
     showgrid="false"
     inkscape:zoom="0.0236"
     inkscape:cx="-5889.8305"
     inkscape:cy="5000"
     inkscape:window-x="0"
     inkscape:window-y="23"
     inkscape:window-maximized="1"
     inkscape:current-layer="Logo" />
  <!-- Generator: Sketch 3.3.2 (12043) - http://www.bohemiancoding.com/sketch -->
  <title
     id="title4">Artboard 1</title>
  <desc
     id="desc6">Created with Sketch.</desc>
  <defs
     id="defs8" />
  <g
     id="Page-1"
     stroke="none"
     stroke-width="1"
     fill="none"
     fill-rule="evenodd"
     sketch:type="MSPage">
    <g
       transform="translate(-1,0)"
       sketch:type="MSLayerGroup"
       id="Logo">
      <g
         id="g4154">
        <path
           d="m 3124.6459,837.60588 c 0,-1884.61328 839.1024,0 1874.1878,0 1035.0853,0 1874.1878,-1884.61328 1874.1878,0 C 6873.0215,2722.2191 6033.919,4250 4998.8337,4250 3963.7483,4250 3124.6459,2722.2191 3124.6459,837.60588 l 0,0 z"
           id="Oval-2-Copy-3"
           sketch:type="MSShapeGroup"
           inkscape:connector-curvature="0"
           style="fill:#ffffff;fill-opacity:1" />
        <path
           d="m 3124.6459,6587.6059 c 0,-1884.6133 839.1024,0 1874.1878,0 1035.0853,0 1874.1878,-1884.6133 1874.1878,0 C 6873.0215,8472.2191 6033.919,10000 4998.8337,10000 3963.7483,10000 3124.6459,8472.2191 3124.6459,6587.6059 l 0,0 z"
           id="Oval-2-Copy-4"
           sketch:type="MSShapeGroup"
           transform="matrix(1,0,0,-1,0,15750)"
           inkscape:connector-curvature="0"
           style="fill:#ffffff;fill-opacity:1" />
        <path
           d="m 5998.4005,3712.6059 c 0,-1884.6132 839.1024,0 1874.1878,0 1035.0853,0 1874.1878,-1884.6132 1874.1878,0 C 9746.7761,5597.2191 8907.6736,7125 7872.5883,7125 6837.5029,7125 5998.4005,5597.2191 5998.4005,3712.6059 l 0,0 z"
           id="Oval-2-Copy-6"
           sketch:type="MSShapeGroup"
           transform="matrix(0,1,-1,0,12872.588,-2872.5883)"
           inkscape:connector-curvature="0"
           style="fill:#ffffff;fill-opacity:1" />
        <path
           d="m 250.89127,3712.6059 c 0,-1884.6132 839.10243,0 1874.18783,0 1035.0853,0 1874.1878,-1884.6132 1874.1878,0 C 3999.2669,5597.2191 3160.1644,7125 2125.0791,7125 1089.9937,7125 250.89127,5597.2191 250.89127,3712.6059 l 0,0 z"
           id="Oval-2-Copy-5"
           sketch:type="MSShapeGroup"
           transform="matrix(0,-1,1,0,-2874.9209,7125.0791)"
           inkscape:connector-curvature="0"
           style="fill:#ffffff;fill-opacity:1" />
        <ellipse
           id="Oval-13-Copy"
           sketch:type="MSShapeGroup"
           cx="4998.8335"
           cy="3125"
           rx="499.78342"
           ry="500"
           style="fill:#f16272;fill-opacity:1" />
        <ellipse
           id="Oval-13-Copy-3"
           sketch:type="MSShapeGroup"
           cx="6873.0215"
           cy="5000"
           rx="499.78342"
           ry="500"
           style="fill:#f16272;fill-opacity:1" />
        <ellipse
           id="Oval-13-Copy-4"
           sketch:type="MSShapeGroup"
           cx="3124.646"
           cy="5000"
           rx="499.78342"
           ry="500"
           style="fill:#f16272;fill-opacity:1" />
        <ellipse
           id="Oval-13-Copy-2"
           sketch:type="MSShapeGroup"
           cx="4998.8335"
           cy="6875"
           rx="499.78342"
           ry="500"
           style="fill:#f16272;fill-opacity:1" />
      </g>
    </g>
  </g>
</svg>
