<?xml version="1.0" encoding="UTF-8" standalone="no"?>
<svg width="7680px" height="4320px" viewBox="0 0 7680 4320" version="1.1" xmlns="http://www.w3.org/2000/svg" xmlns:xlink="http://www.w3.org/1999/xlink" xmlns:sketch="http://www.bohemiancoding.com/sketch/ns">
    <!-- Generator: Sketch 3.3.2 (12043) - http://www.bohemiancoding.com/sketch -->
    <title>Rectangle 1 + Logo + Monogatari + All stories should b</title>
    <desc>Created with Sketch.</desc>
    <defs></defs>
    <g id="Page-2" stroke="none" stroke-width="1" fill="none" fill-rule="evenodd" sketch:type="MSPage">
        <g id="Rectangle-1-+-Logo-+-Monogatari-+-All-stories-should-b" sketch:type="MSLayerGroup">
            <rect id="Rectangle-1" fill="#F7F6F6" sketch:type="MSShapeGroup" x="0" y="0" width="7680" height="4320"></rect>
            <g id="Logo" transform="translate(172.000000, 693.000000)" sketch:type="MSShapeGroup">
                <path d="M781.317734,209.40147 C781.317734,-261.751838 991.135311,209.40147 1249.95841,209.40147 C1508.78151,209.40147 1718.59909,-261.751838 1718.59909,209.40147 C1718.59909,680.554778 1508.78151,1062.5 1249.95841,1062.5 C991.135311,1062.5 781.317734,680.554778 781.317734,209.40147 L781.317734,209.40147 Z" id="Oval-2-Copy-3" fill="#F16272"></path>
                <path d="M781.317734,1646.90147 C781.317734,1175.74816 991.135311,1646.90147 1249.95841,1646.90147 C1508.78151,1646.90147 1718.59909,1175.74816 1718.59909,1646.90147 C1718.59909,2118.05478 1508.78151,2500 1249.95841,2500 C991.135311,2500 781.317734,2118.05478 781.317734,1646.90147 L781.317734,1646.90147 Z" id="Oval-2-Copy-4" fill="#F16272" transform="translate(1249.958410, 1968.750000) scale(1, -1) translate(-1249.958410, -1968.750000) "></path>
                <path d="M1499.9001,928.15147 C1499.9001,456.998162 1709.71768,928.15147 1968.54078,928.15147 C2227.36388,928.15147 2437.18145,456.998162 2437.18145,928.15147 C2437.18145,1399.30478 2227.36388,1781.25 1968.54078,1781.25 C1709.71768,1781.25 1499.9001,1399.30478 1499.9001,928.15147 L1499.9001,928.15147 Z" id="Oval-2-Copy-6" fill="#F16272" transform="translate(1968.540779, 1250.000000) scale(-1, -1) rotate(270.000000) translate(-1968.540779, -1250.000000) "></path>
                <path d="M62.7353651,928.15147 C62.7353651,456.998162 272.552942,928.15147 531.376041,928.15147 C790.199139,928.15147 1000.01672,456.998162 1000.01672,928.15147 C1000.01672,1399.30478 790.199139,1781.25 531.376041,1781.25 C272.552942,1781.25 62.7353651,1399.30478 62.7353651,928.15147 L62.7353651,928.15147 Z" id="Oval-2-Copy-5" fill="#F16272" transform="translate(531.376041, 1250.000000) rotate(270.000000) translate(-531.376041, -1250.000000) "></path>
                <ellipse id="Oval-13-Copy" fill="#FFFFFF" cx="1249.95841" cy="781.25" rx="124.970847" ry="125"></ellipse>
                <ellipse id="Oval-13-Copy-3" fill="#FFFFFF" cx="1718.59909" cy="1250" rx="124.970847" ry="125"></ellipse>
                <ellipse id="Oval-13-Copy-4" fill="#FFFFFF" cx="781.317734" cy="1250" rx="124.970847" ry="125"></ellipse>
                <ellipse id="Oval-13-Copy-2" fill="#FFFFFF" cx="1249.95841" cy="1718.75" rx="124.970847" ry="125"></ellipse>
            </g>
            <g id="Monogatari-+-All-stories-should-b" transform="translate(2520.000000, 1643.000000)" font-family="Lato" fill="#696969" sketch:type="MSTextLayer" font-weight="normal">
                <text id="Monogatari" font-size="700">
                    <tspan x="601" y="691">Monogatari</tspan>
                </text>
                <text id="Every-story-should-b" font-size="200">
                    <tspan x="0" y="1037">Every story should be told before they are lost forever.</tspan>
                </text>
            </g>
        </g>
    </g>
</svg>