<?xml version="1.0" encoding="UTF-8" standalone="no"?>
<svg width="9997px" height="10000px" viewBox="0 0 9997 10000" version="1.1" xmlns="http://www.w3.org/2000/svg" xmlns:xlink="http://www.w3.org/1999/xlink" xmlns:sketch="http://www.bohemiancoding.com/sketch/ns">
    <!-- Generator: Sketch 3.4 (15575) - http://www.bohemiancoding.com/sketch -->
    <title>Oval 2 Copy 3</title>
    <desc>Created with Sketch.</desc>
    <defs></defs>
    <g id="Page-1" stroke="none" stroke-width="1" fill="none" fill-rule="evenodd" sketch:type="MSPage">
        <g id="Artboard-1" sketch:type="MSArtboardGroup" fill="#FFFFFF">
            <path d="M3123.64588,837.605881 C3123.64588,-1047.00735 3962.74834,837.605881 4997.83367,837.605881 C6032.91901,837.605881 6872.02146,-1047.00735 6872.02146,837.605881 C6872.02146,2722.21911 6032.91901,4250 4997.83367,4250 C3962.74834,4250 3123.64588,2722.21911 3123.64588,837.605881 Z M4997.83367,3625 C5273.85643,3625 5497.61708,3401.14237 5497.61708,3125 C5497.61708,2848.85763 5273.85643,2625 4997.83367,2625 C4721.81092,2625 4498.05026,2848.85763 4498.05026,3125 C4498.05026,3401.14237 4721.81092,3625 4997.83367,3625 Z M3123.64588,9162.39412 C3123.64588,11047.0074 3962.74834,9162.39412 4997.83367,9162.39412 C6032.91901,9162.39412 6872.02146,11047.0074 6872.02146,9162.39412 C6872.02146,7277.78089 6032.91901,5750 4997.83367,5750 C3962.74834,5750 3123.64588,7277.78089 3123.64588,9162.39412 Z M4997.83367,7375 C5273.85643,7375 5497.61708,7151.14237 5497.61708,6875 C5497.61708,6598.85763 5273.85643,6375 4997.83367,6375 C4721.81092,6375 4498.05026,6598.85763 4498.05026,6875 C4498.05026,7151.14237 4721.81092,7375 4997.83367,7375 Z M9158.9824,3125.81221 C11043.5956,3125.81221 9158.9824,3964.91467 9158.9824,5000 C9158.9824,6035.08533 11043.5956,6874.18779 9158.9824,6874.18779 C7274.36917,6874.18779 5746.58828,6035.08533 5746.58828,5000 C5746.58828,3964.91467 7274.36917,3125.81221 9158.9824,3125.81221 Z M6872.02146,5500 C7148.04422,5500 7371.80487,5276.14237 7371.80487,5000 C7371.80487,4723.85763 7148.04422,4500 6872.02146,4500 C6595.99871,4500 6372.23805,4723.85763 6372.23805,5000 C6372.23805,5276.14237 6595.99871,5500 6872.02146,5500 Z M836.684943,6874.18779 C-1047.92829,6874.18779 836.684943,6035.08533 836.684943,5000 C836.684943,3964.91467 -1047.92829,3125.81221 836.684943,3125.81221 C2721.29817,3125.81221 4249.07906,3964.91467 4249.07906,5000 C4249.07906,6035.08533 2721.29817,6874.18779 836.684943,6874.18779 Z M3123.64588,5500 C3399.66864,5500 3623.42929,5276.14237 3623.42929,5000 C3623.42929,4723.85763 3399.66864,4500 3123.64588,4500 C2847.62313,4500 2623.86247,4723.85763 2623.86247,5000 C2623.86247,5276.14237 2847.62313,5500 3123.64588,5500 Z" id="Oval-2-Copy-3" sketch:type="MSShapeGroup"></path>
        </g>
    </g>
</svg>